<svg xmlns="http://www.w3.org/2000/svg" width="37.705" height="23.474" viewBox="0 0 37.705 23.474">
  <path id="Exclusion_1" data-name="Exclusion 1" d="M30.307,23.474H7.289A7.29,7.29,0,0,1,4.915,9.293a.576.576,0,0,0,.374-.427,6.44,6.44,0,0,1,6.305-5.142,6.493,6.493,0,0,1,2.629.562.568.568,0,0,0,.233.05.559.559,0,0,0,.45-.227A10,10,0,0,1,32.937,9.014a.561.561,0,0,0,.342.464,7.277,7.277,0,0,1,2.448,11.681A7.381,7.381,0,0,1,30.307,23.474ZM18.852,6.669a7.069,7.069,0,1,0,5,2.07A7.021,7.021,0,0,0,18.852,6.669Zm0,10.823a.664.664,0,0,1-.662-.663V10.644a.662.662,0,1,1,1.325,0v6.185A.664.664,0,0,1,18.852,17.492Zm2.209-1.326A.663.663,0,0,1,20.4,15.5V11.97a.663.663,0,0,1,1.326,0V15.5A.664.664,0,0,1,21.061,16.167Zm-4.417,0a.663.663,0,0,1-.662-.662V11.97a.662.662,0,1,1,1.325,0V15.5A.663.663,0,0,1,16.644,16.167Zm6.627-1.1a.664.664,0,0,1-.663-.662V13.074a.663.663,0,0,1,1.326,0V14.4A.663.663,0,0,1,23.27,15.062Zm-8.835,0a.664.664,0,0,1-.663-.662V13.074a.663.663,0,0,1,1.326,0V14.4A.663.663,0,0,1,14.435,15.062Z" transform="translate(0)" fill="#3D7EFF"/>
</svg>