<svg xmlns="http://www.w3.org/2000/svg" width="42.661" height="26.559" viewBox="0 0 42.661 26.559">
  <path id="Exclusion_3" data-name="Exclusion 3" d="M34.29,26.559H8.248A8.248,8.248,0,0,1,5.561,10.514a.644.644,0,0,0,.423-.483,7.287,7.287,0,0,1,7.133-5.819,7.341,7.341,0,0,1,2.974.636.642.642,0,0,0,.264.056.631.631,0,0,0,.509-.257,11.318,11.318,0,0,1,20.4,5.551.639.639,0,0,0,.387.526,8.233,8.233,0,0,1,2.77,13.216A8.351,8.351,0,0,1,34.29,26.559ZM21.33,7.546a8,8,0,1,0,5.656,2.342A7.944,7.944,0,0,0,21.33,7.546Zm0,12.245a.751.751,0,0,1-.75-.75v-7a.75.75,0,1,1,1.5,0v7A.751.751,0,0,1,21.33,19.791Zm2.5-1.5a.751.751,0,0,1-.75-.75v-4a.75.75,0,1,1,1.5,0v4A.751.751,0,0,1,23.829,18.292Zm-5,0a.751.751,0,0,1-.75-.75v-4a.75.75,0,0,1,1.5,0v4A.751.751,0,0,1,18.831,18.292Zm7.5-1.249a.751.751,0,0,1-.75-.75v-1.5a.75.75,0,1,1,1.5,0v1.5A.751.751,0,0,1,26.329,17.042Zm-10,0a.751.751,0,0,1-.75-.75v-1.5a.75.75,0,1,1,1.5,0v1.5A.751.751,0,0,1,16.332,17.042Z" fill="#fff"/>
</svg>
