<svg xmlns="http://www.w3.org/2000/svg" width="15.705" height="20.538" viewBox="0 0 15.705 20.538">
  <path id="Path" d="M8.327,0C2.791,0,0,4.016,0,7.367,0,9.4.758,11.2,2.385,11.876a.4.4,0,0,0,.582-.3c.056-.207.181-.73.236-.946a.578.578,0,0,0-.167-.657,3.433,3.433,0,0,1-.77-2.312A5.553,5.553,0,0,1,8,2.014c3.127,0,4.847,1.934,4.847,4.52,0,3.4-1.486,6.271-3.693,6.271a1.82,1.82,0,0,1-1.838-2.274A25.639,25.639,0,0,0,8.348,6.346a1.57,1.57,0,0,0-1.569-1.77c-1.247,0-2.249,1.3-2.249,3.054A4.568,4.568,0,0,0,4.9,9.5l-1.5,6.429a13.387,13.387,0,0,0-.035,4.483.155.155,0,0,0,.278.068,12.689,12.689,0,0,0,2.1-3.861c.141-.523.818-3.244.818-3.244A3.33,3.33,0,0,0,9.419,14.84c3.744,0,6.287-3.457,6.287-8.086C15.7,3.26,12.775,0,8.327,0Z" fill="#fff"/>
</svg>
