<svg xmlns="http://www.w3.org/2000/svg" width="19.998" height="23.549" viewBox="0 0 19.998 23.549">
  <path id="icons8-google-play" d="M7.623,3.211,18,13.586l2.678-2.678c-3.659-2.22-8.56-5.2-10.764-6.537L8.438,3.477A1.833,1.833,0,0,0,7.623,3.211ZM6.039,4.453A1.911,1.911,0,0,0,6,4.8v20.5a1.68,1.68,0,0,0,.029.248L16.586,15Zm16.4,7.523L19.414,15l2.971,2.971,2.785-1.689A1.574,1.574,0,0,0,26,14.922a1.516,1.516,0,0,0-.824-1.293C25.059,13.563,23.983,12.914,22.438,11.977ZM18,16.414,7.654,26.76a1.682,1.682,0,0,0,.594-.211l12.377-7.51Z" transform="translate(-6 -3.211)" fill="#fff"/>
</svg>
