<svg xmlns="http://www.w3.org/2000/svg" width="19.28" height="16.709" viewBox="0 0 19.28 16.709">
  <path id="Path" d="M19.28,1.976a7.555,7.555,0,0,1-2.271.665A4.189,4.189,0,0,0,18.746.308a7.659,7.659,0,0,1-2.512,1.025A3.837,3.837,0,0,0,13.349,0,4.093,4.093,0,0,0,9.392,4.218a4.578,4.578,0,0,0,.1.961A11.005,11.005,0,0,1,1.342.771,4.432,4.432,0,0,0,.806,2.893,4.3,4.3,0,0,0,2.564,6.4,3.733,3.733,0,0,1,.773,5.875v.054a4.162,4.162,0,0,0,3.173,4.136,3.721,3.721,0,0,1-1.042.148,3.674,3.674,0,0,1-.742-.075,4,4,0,0,0,3.692,2.931,7.623,7.623,0,0,1-4.911,1.8A7.368,7.368,0,0,1,0,14.815a10.7,10.7,0,0,0,6.063,1.894c7.275,0,11.254-6.427,11.254-12,0-.183,0-.364-.011-.545A8.362,8.362,0,0,0,19.28,1.976Z" fill="#fff"/>
</svg>
