<svg xmlns="http://www.w3.org/2000/svg" width="20" height="15" viewBox="0 0 20 15">
  <path id="Subtraction_3" data-name="Subtraction 3" d="M9.835,14c-.436,0-.88-.005-1.31-.011l-.594-.007c-.289,0-.583-.008-.867-.014l-.437-.008c-.467-.008-.941-.02-1.408-.035-.314-.008-.63-.021-.9-.034l-.217-.01c-.286-.013-.581-.027-.87-.056l-.016,0A5.486,5.486,0,0,1,1.9,13.589a2.229,2.229,0,0,1-1.41-1.413,6.137,6.137,0,0,1-.3-1.182c-.029-.187-.043-.378-.057-.564,0-.053-.008-.1-.011-.149C.092,9.9.067,9.6.047,9.318.032,9.1.017,8.871.015,8.644,0,7.633,0,6.748,0,5.94c0-.285.01-.588.032-.952V4.979C.053,4.6.075,4.208.112,3.823s.079-.771.145-1.144A3.82,3.82,0,0,1,.712,1.361,2.25,2.25,0,0,1,2.126.314,5.4,5.4,0,0,1,2.953.193h.009c.323-.029.652-.048.97-.066L4.215.109C4.349.1,4.477.094,4.6.091L4.8.085c.329-.01.668-.021,1-.028L6.524.041C7.228.025,7.954.009,8.67,0q.379,0,.758,0c.484,0,.976,0,1.452.007l.618,0c.436,0,.879.017,1.309.029l.132,0c.444.012.912.029,1.471.051.365.014.684.031.977.05.321.02.695.045,1.06.084a2.453,2.453,0,0,1,1.68.9,2.3,2.3,0,0,1,.423.838c.1.351.187.7.252,1.034a4.062,4.062,0,0,1,.055.5c0,.07.009.14.016.21l.011.128c.017.192.035.39.049.585s.027.38.032.575c0,.139,0,.281,0,.417,0,.056,0,.112,0,.168H19q0,.311,0,.622c0,.578,0,1.175-.006,1.76,0,.439-.024.868-.047,1.344-.012.242-.032.489-.051.728-.009.106-.017.212-.025.318a6.529,6.529,0,0,1-.363,1.8,2.31,2.31,0,0,1-1.744,1.549,5.455,5.455,0,0,1-.764.1l-.044,0c-.323.028-.652.047-.971.065l-.321.019c-.143.009-.283.014-.389.018l-.207.007c-.32.01-.647.021-.971.028l-.68.015c-.722.016-1.464.032-2.193.039ZM7.536,3.987v5.6q1.536-.838,3.066-1.67L12.668,6.8Z" transform="translate(0.5 0.5)" fill="#fff" stroke="rgba(0,0,0,0)" stroke-miterlimit="10" stroke-width="1"/>
</svg>
