<svg xmlns="http://www.w3.org/2000/svg" width="19.774" height="19.772" viewBox="0 0 19.774 19.772">
  <g id="Page-1" transform="translate(0.003)">
    <g id="_003---Call" data-name="003---Call" transform="translate(-0.003)">
      <path id="Shape" d="M9.185,11.624a7.98,7.98,0,0,1-2.41-4.531.678.678,0,0,1,.195-.567L8.5,5a.682.682,0,0,0,.1-.844L6.162.38A.682.682,0,0,0,5.279.132L1.375,1.97A.678.678,0,0,0,1,2.647,18.87,18.87,0,0,0,6.746,14.062a18.864,18.864,0,0,0,11.415,5.746.678.678,0,0,0,.677-.375l1.839-3.9a.682.682,0,0,0-.247-.882l-3.776-2.431a.682.682,0,0,0-.844.1l-1.527,1.527a.678.678,0,0,1-.567.195,7.98,7.98,0,0,1-4.531-2.41Z" transform="translate(-0.997 -0.039)" fill="#87ff7e"/>
      <path id="Shape-2" data-name="Shape" d="M34.477,17.159a.682.682,0,0,1-.682-.682,5.119,5.119,0,0,0-5.114-5.114.682.682,0,0,1,0-1.364,6.484,6.484,0,0,1,6.477,6.477A.682.682,0,0,1,34.477,17.159Z" transform="translate(-18.794 -6.591)" fill="#87ff7e"/>
      <path id="Shape-3" data-name="Shape" d="M37.886,10.568a.682.682,0,0,1-.682-.682,8.532,8.532,0,0,0-8.523-8.523.682.682,0,1,1,0-1.364,9.9,9.9,0,0,1,9.886,9.886.682.682,0,0,1-.682.682Z" transform="translate(-18.794)" fill="#87ff7e"/>
    </g>
  </g>
</svg>
