<svg id="Group_144" data-name="Group 144" xmlns="http://www.w3.org/2000/svg" width="20" height="20" viewBox="0 0 20 20">
  <g id="Group_143" data-name="Group 143">
    <rect id="Rectangle_119" data-name="Rectangle 119" width="5.714" height="5.714" rx="1.429" transform="translate(4.286 4.286)" fill="none" stroke="#46f8e0" stroke-linecap="round" stroke-linejoin="round" stroke-width="1.429"/>
    <path id="Path_13191" data-name="Path 13191" d="M4.286.714H2.143A1.429,1.429,0,0,0,.714,2.143V4.286" fill="none" stroke="#46f8e0" stroke-linecap="round" stroke-linejoin="round" stroke-width="1.429"/>
    <path id="Path_13192" data-name="Path 13192" d="M15.714.714h2.143a1.429,1.429,0,0,1,1.429,1.429V4.286" fill="none" stroke="#46f8e0" stroke-linecap="round" stroke-linejoin="round" stroke-width="1.429"/>
    <path id="Path_13193" data-name="Path 13193" d="M4.286,19.286H2.143A1.429,1.429,0,0,1,.714,17.857V15.714" fill="none" stroke="#46f8e0" stroke-linecap="round" stroke-linejoin="round" stroke-width="1.429"/>
    <path id="Path_13194" data-name="Path 13194" d="M15.714,19.286h2.143a1.429,1.429,0,0,0,1.429-1.429V15.714" fill="none" stroke="#46f8e0" stroke-linecap="round" stroke-linejoin="round" stroke-width="1.429"/>
    <path id="Path_13195" data-name="Path 13195" d="M4.286,13.571v2.143H6.429" fill="none" stroke="#46f8e0" stroke-linecap="round" stroke-linejoin="round" stroke-width="1.429"/>
    <path id="Path_13196" data-name="Path 13196" d="M10,15.714V13.571H7.857" fill="none" stroke="#46f8e0" stroke-linecap="round" stroke-linejoin="round" stroke-width="1.429"/>
    <path id="Path_13197" data-name="Path 13197" d="M15.714,6.429H13.571V4.286" fill="none" stroke="#46f8e0" stroke-linecap="round" stroke-linejoin="round" stroke-width="1.429"/>
    <path id="Path_13198" data-name="Path 13198" d="M15.714,11.429V9.286H13.571" fill="none" stroke="#46f8e0" stroke-linecap="round" stroke-linejoin="round" stroke-width="1.429"/>
    <path id="Path_13199" data-name="Path 13199" d="M13.571,13.571v2.143h2.143" fill="none" stroke="#46f8e0" stroke-linecap="round" stroke-linejoin="round" stroke-width="1.429"/>
  </g>
</svg>
