<svg xmlns="http://www.w3.org/2000/svg" width="20.08" height="22.062" viewBox="0 0 20.08 22.062">
  <g id="code" transform="translate(-23 0)">
    <g id="Group_152" data-name="Group 152" transform="translate(23 0)">
      <g id="Group_151" data-name="Group 151">
        <path id="Path_13209" data-name="Path 13209" d="M41.3,4.214,34.815.474a3.565,3.565,0,0,0-3.551,0l-6.485,3.74A3.565,3.565,0,0,0,23,7.293v7.475a3.565,3.565,0,0,0,1.779,3.08l6.485,3.74a3.564,3.564,0,0,0,3.551,0l6.485-3.74a3.565,3.565,0,0,0,1.779-3.08V7.293A3.565,3.565,0,0,0,41.3,4.214Zm.055,10.554a1.836,1.836,0,0,1-.916,1.586l-6.485,3.74a1.836,1.836,0,0,1-1.829,0l-6.485-3.74a1.836,1.836,0,0,1-.916-1.586V7.293a1.836,1.836,0,0,1,.916-1.586l6.485-3.74a1.836,1.836,0,0,1,1.829,0l6.485,3.74a1.836,1.836,0,0,1,.916,1.586Z" transform="translate(-23 0)" fill="#4873eb"/>
        <path id="Path_13210" data-name="Path 13210" d="M134.413,176.045l-3.2-2.709a.862.862,0,0,0-1.113,1.316l2.423,2.051-2.423,2.051a.862.862,0,1,0,1.113,1.316l3.2-2.709A.862.862,0,0,0,134.413,176.045Z" transform="translate(-125.192 -165.672)" fill="#4873eb"/>
        <path id="Path_13211" data-name="Path 13211" d="M256.951,298.859h-3.878a.862.862,0,0,0,0,1.724h3.878a.862.862,0,0,0,0-1.724Z" transform="translate(-242.334 -285.981)" fill="#4873eb"/>
      </g>
    </g>
  </g>
</svg>
