<svg xmlns="http://www.w3.org/2000/svg" width="23.542" height="13.831" viewBox="0 0 23.542 13.831">
  <g id="video-camera" transform="translate(0 -96.512)">
    <g id="Group_3" data-name="Group 3" transform="translate(0 96.512)">
      <g id="Group_2" data-name="Group 2" transform="translate(0 0)">
        <path id="Path_10" data-name="Path 10" d="M13.316,96.512H2.576A2.583,2.583,0,0,0,0,99.088v8.68a2.583,2.583,0,0,0,2.576,2.576H13.316a2.583,2.583,0,0,0,2.576-2.576v-8.68A2.567,2.567,0,0,0,13.316,96.512Z" transform="translate(0 -96.512)" fill="#fff"/>
      </g>
    </g>
    <g id="Group_5" data-name="Group 5" transform="translate(17.18 97.887)">
      <g id="Group_4" data-name="Group 4" transform="translate(0 0)">
        <path id="Path_11" data-name="Path 11" d="M345.96,123.889a1.312,1.312,0,0,0-.438.18l-4.018,2.318v5.976l4.044,2.318a1.531,1.531,0,0,0,2.112-.567,1.573,1.573,0,0,0,.206-.773v-7.959A1.55,1.55,0,0,0,345.96,123.889Z" transform="translate(-341.504 -123.847)" fill="#fff"/>
      </g>
    </g>
  </g>
</svg>
