<svg xmlns="http://www.w3.org/2000/svg" width="22.133" height="18.505" viewBox="0 0 22.133 18.505">
  <path id="Path_13096" data-name="Path 13096" d="M18.5,3.24H2.944C1.575,3.24,0,4.456,0,5.628v9.429c0,1.079,1.335,1.859,2.615,1.979L1.782,20.2,7.12,17.058H18.5c1.369,0,2.632-.83,2.632-2V5.628A2.687,2.687,0,0,0,18.5,3.24ZM5.317,11.2A1.405,1.405,0,1,1,6.723,9.794,1.405,1.405,0,0,1,5.317,11.2Zm5.249,0a1.405,1.405,0,1,1,1.405-1.405A1.405,1.405,0,0,1,10.567,11.2Zm5.25,0a1.405,1.405,0,1,1,1.405-1.405A1.406,1.406,0,0,1,15.816,11.2Z" transform="translate(0.5 -2.74)" fill="#fff" stroke="#000" stroke-width="1"/>
</svg>

