<svg xmlns="http://www.w3.org/2000/svg" width="32.37" height="25.975" viewBox="0 0 32.37 25.975">
  <path id="Path_13103" data-name="Path 13103" d="M28.338,3.24H4.509C2.413,3.24,0,5.1,0,6.9V21.34c0,1.653,2.044,2.847,4.005,3.032L2.729,29.215,10.906,24.4H28.338c2.1,0,4.031-1.271,4.031-3.065V6.9A4.115,4.115,0,0,0,28.338,3.24ZM8.145,15.431A2.153,2.153,0,1,1,10.3,13.278,2.152,2.152,0,0,1,8.145,15.431Zm8.04,0a2.153,2.153,0,1,1,2.153-2.153A2.152,2.152,0,0,1,16.185,15.431Zm8.041,0a2.153,2.153,0,1,1,2.153-2.153A2.153,2.153,0,0,1,24.226,15.431Z" transform="translate(0 -3.24)" fill="#6c3dff"/>
</svg>
