<svg id="Group_51" data-name="Group 51" xmlns="http://www.w3.org/2000/svg" width="17.529" height="10.787" viewBox="0 0 17.529 10.787">
  <path id="Path_13089" data-name="Path 13089" d="M1.071,16.263a.944.944,0,0,0,.5.836.957.957,0,0,0,.984,0L9.4,12.65a.944.944,0,0,0,0-1.591L2.554,6.584a.957.957,0,0,0-.984,0,.944.944,0,0,0-.5.836Z" transform="translate(-1.071 -6.448)" fill="#020016"/>
  <path id="Path_13090" data-name="Path 13090" d="M15,16.263a.944.944,0,0,0,.5.836.957.957,0,0,0,.984,0l6.848-4.449a.944.944,0,0,0,0-1.591L16.483,6.584a.957.957,0,0,0-.984,0,.944.944,0,0,0-.5.809Z" transform="translate(-6.238 -6.448)" fill="#020016"/>
</svg>
