<svg id="Group_195" data-name="Group 195" xmlns="http://www.w3.org/2000/svg" width="21.04" height="21.04" viewBox="0 0 21.04 21.04">
  <g id="Group_194" data-name="Group 194" transform="translate(0.714 0.714)">
    <path id="Path_13296" data-name="Path 13296" d="M15.046,5.24V17.309a3.017,3.017,0,0,1-3.017,3.017H.714a3.017,3.017,0,0,0,3.017-3.017V3.731A3.017,3.017,0,0,1,6.749.714H17.686" transform="translate(-0.714 -0.714)" fill="#4b8dff" stroke="#4b8dff" stroke-linecap="round" stroke-linejoin="round" stroke-width="1.429"/>
    <path id="Path_13297" data-name="Path 13297" d="M16.926.714h0a2.64,2.64,0,0,1,2.64,2.64V4.486a.754.754,0,0,1-.754.754H14.286V3.354A2.64,2.64,0,0,1,16.926.714Z" transform="translate(0.046 -0.714)" fill="#8bb6ff" stroke="#4b8dff" stroke-linecap="round" stroke-linejoin="round" stroke-width="1.429"/>
    <line id="Line_79" data-name="Line 79" x2="2.263" transform="translate(8.297 5.28)" fill="none" stroke="#fff" stroke-linecap="round" stroke-linejoin="round" stroke-width="1.429"/>
    <line id="Line_80" data-name="Line 80" x2="3.771" transform="translate(6.789 9.806)" fill="none" stroke="#fff" stroke-linecap="round" stroke-linejoin="round" stroke-width="1.429"/>
    <line id="Line_81" data-name="Line 81" x2="3.771" transform="translate(6.789 14.332)" fill="none" stroke="#fff" stroke-linecap="round" stroke-linejoin="round" stroke-width="1.429"/>
  </g>
</svg>
