<svg xmlns="http://www.w3.org/2000/svg" width="20.242" height="20.271" viewBox="0 0 20.242 20.271">
  <g id="Group_175" data-name="Group 175" transform="translate(0.296 -0.025)">
    <g id="Group_174" data-name="Group 174">
      <path id="Path_13278" data-name="Path 13278" d="M18.057,2.671l-1.2,3.543a.586.586,0,0,0,0,.529l2.243,3a.571.571,0,0,1-.471.914H14.886a.614.614,0,0,0-.471.243l-2.086,3a.571.571,0,0,1-1.014-.157L10.2,10.171A.543.543,0,0,0,9.829,9.8L6.257,8.686A.571.571,0,0,1,6.1,7.671L9.157,5.514A.614.614,0,0,0,9.4,5.043V1.3a.571.571,0,0,1,.857-.471l3,2.243a.586.586,0,0,0,.529.071l3.543-1.2a.571.571,0,0,1,.729.729Z" fill="#ea7ba8" stroke="#ea7ba8" stroke-linecap="round" stroke-linejoin="round" stroke-width="1.429"/>
      <line id="Line_69" data-name="Line 69" x1="9.343" y2="9.343" transform="translate(0.714 9.943)" fill="none" stroke="#ea7ba8" stroke-linecap="round" stroke-linejoin="round" stroke-width="1.429"/>
    </g>
  </g>
</svg>
