<svg xmlns="http://www.w3.org/2000/svg" width="19.472" height="19.474" viewBox="0 0 19.472 19.474">
  <g id="Group_183" data-name="Group 183" transform="translate(-0.264 -0.262)">
    <g id="Group_182" data-name="Group 182">
      <path id="Path_13290" data-name="Path 13290" d="M10,19.286a13.229,13.229,0,0,0-8.014-4.214A1.429,1.429,0,0,1,.714,13.643V2.143A1.428,1.428,0,0,1,2.343.729,13.286,13.286,0,0,1,10,4.9Z" fill="#3a3e9e" stroke="#fff" stroke-linecap="round" stroke-linejoin="round" stroke-width="0.9"/>
      <path id="Path_13291" data-name="Path 13291" d="M10,19.286a13.229,13.229,0,0,1,8.014-4.214,1.429,1.429,0,0,0,1.271-1.429V2.143A1.428,1.428,0,0,0,17.657.729,13.286,13.286,0,0,0,10,4.9Z" fill="#3a3e9e" stroke="#fff" stroke-linecap="round" stroke-linejoin="round" stroke-width="0.9"/>
    </g>
  </g>
</svg>
