<svg xmlns="http://www.w3.org/2000/svg" width="14.868" height="14.24" viewBox="0 0 14.868 14.24">
  <path id="Path_13124" data-name="Path 13124" d="M9.049,2.927a1,1,0,0,1,1.9,0l1.07,3.292a1,1,0,0,0,.95.69h3.462a1,1,0,0,1,.588,1.81l-2.8,2.034a1,1,0,0,0-.364,1.118l1.07,3.292a1,1,0,0,1-1.54,1.118l-2.8-2.034a1,1,0,0,0-1.175,0l-2.8,2.034a1,1,0,0,1-1.539-1.118l1.07-3.292a1,1,0,0,0-.364-1.118L2.98,8.72a1,1,0,0,1,.588-1.81H7.029a1,1,0,0,0,.951-.69L9.05,2.928Z" transform="translate(-2.566 -2.236)" fill="#cbcbcb"/>
</svg>
