<svg xmlns="http://www.w3.org/2000/svg" width="22.324" height="27.217" viewBox="0 0 22.324 27.217">
  <g id="apple" transform="translate(-46.022)">
    <path id="Path_13045" data-name="Path 13045" d="M53.423,138.9c-4.051-.023-7.4-8.292-7.4-12.5,0-6.879,5.16-8.385,7.149-8.385a8.226,8.226,0,0,1,2.7.663,6.029,6.029,0,0,0,1.54.442,4.793,4.793,0,0,0,1.1-.358,8.856,8.856,0,0,1,3.33-.805h.008a6.826,6.826,0,0,1,5.712,2.885l.417.626-.6.452a5.045,5.045,0,0,0-2.419,4.16,4.7,4.7,0,0,0,2.62,4.341c.375.226.764.459.764.968,0,.332-2.654,7.472-6.507,7.472a5.233,5.233,0,0,1-2.2-.533,4.456,4.456,0,0,0-1.956-.471,5.031,5.031,0,0,0-1.549.419,7.586,7.586,0,0,1-2.686.627Z" transform="translate(0 -111.688)" fill="#040036"/>
    <path id="Path_13046" data-name="Path 13046" d="M260.268,0c.1,3.619-2.488,6.129-5.073,5.972C254.769,3.084,257.78,0,260.268,0Z" transform="translate(-198.015)" fill="#040036"/>
  </g>
</svg>
