<svg xmlns="http://www.w3.org/2000/svg" width="16.178" height="16.178" viewBox="0 0 16.178 16.178">
  <path id="Path_13053" data-name="Path 13053" d="M2,2.771A.771.771,0,0,1,2.771,2h1.66a.771.771,0,0,1,.76.645l.571,3.42a.771.771,0,0,1-.416.817l-1.194.6A8.511,8.511,0,0,0,8.86,12.186l.6-1.194a.771.771,0,0,1,.817-.416l3.42.571a.771.771,0,0,1,.645.76v1.66a.771.771,0,0,1-.771.771H12.025A10.025,10.025,0,0,1,2,4.313Z" transform="matrix(0.921, 0.391, -0.391, 0.921, 3.761, -2.622)" fill="#6c3dff"/>
</svg>
