<svg xmlns="http://www.w3.org/2000/svg" width="36.196" height="27.689" viewBox="0 0 36.196 27.689">
  <g id="Group_16" data-name="Group 16" transform="translate(-42.091 -16.675)">
    <path id="_211724_cloud_icon" data-name="211724_cloud_icon" d="M61.676,121.76c0-.1.016-.194.016-.291A9.5,9.5,0,0,0,52.255,112a9.4,9.4,0,0,0-8.435,5.413,4.755,4.755,0,0,0-2.165-.517,4.988,4.988,0,0,0-4.759,4.2,7.136,7.136,0,0,0-4.9,6.771,7.362,7.362,0,0,0,7.239,7.4H61.571a6.8,6.8,0,0,0,6.625-6.811A6.587,6.587,0,0,0,61.676,121.76Z" transform="translate(10.091 -95.325)" fill="#dedcf9"/>
    <path id="globe-americas-solid" d="M8.027,8a8.027,8.027,0,1,0,8.027,8.027A8.027,8.027,0,0,0,8.027,8Zm2.663,11.574-.366.365a.773.773,0,0,0-.2.347c-.049.183-.088.368-.154.546l-.563,1.516a6.468,6.468,0,0,1-1.38.152v-.886a2.423,2.423,0,0,0-.732-1.659,1.036,1.036,0,0,1-.3-.732V18.187a1.032,1.032,0,0,0-.533-.905c-.465-.257-1.127-.617-1.58-.845a4.666,4.666,0,0,1-1.024-.7l-.026-.023a3.715,3.715,0,0,1-.585-.671c-.3-.446-.8-1.179-1.12-1.655a6.509,6.509,0,0,1,3.34-3.3l.777.389a.518.518,0,0,0,.75-.463V9.645a6.468,6.468,0,0,1,.789-.078l.916.916a.518.518,0,0,1,0,.732l-.152.151L8.21,11.7a.259.259,0,0,0,0,.366l.152.152a.259.259,0,0,1,0,.366l-.259.259a.259.259,0,0,1-.183.076H7.629a.259.259,0,0,0-.181.073l-.321.312a.259.259,0,0,0-.051.3l.5,1.01a.259.259,0,0,1-.231.375H7.167A.259.259,0,0,1,7,14.928l-.3-.261a.518.518,0,0,0-.5-.1L5.185,14.9a.387.387,0,0,0-.05.713l.359.179a2.192,2.192,0,0,0,.981.232c.341,0,.731.883,1.036,1.036H9.67a1.036,1.036,0,0,1,.732.3l.443.443a.987.987,0,0,1,.289.7A1.506,1.506,0,0,1,10.691,19.574ZM13.5,16.618a.777.777,0,0,1-.458-.323l-.582-.873a.776.776,0,0,1,0-.862l.634-.951a.776.776,0,0,1,.3-.264l.42-.21a6.271,6.271,0,0,1,.631,3.718Z" transform="translate(52.162 20.309)" fill="#040036"/>
  </g>
</svg>
