<svg xmlns="http://www.w3.org/2000/svg" width="19.387" height="18.639" viewBox="0 0 19.387 18.639">
  <path id="Path_9" data-name="Path 9" d="M3,19V10.07a2,2,0,0,1,.89-1.664l7-4.666a2,2,0,0,1,2.22,0l7,4.666A2,2,0,0,1,21,10.07V19M3,19a2,2,0,0,0,2,2H19a2,2,0,0,0,2-2M3,19l6.75-4.5M21,19l-6.75-4.5M3,10l6.75,4.5M21,10l-6.75,4.5m0,0-1.14.76a2,2,0,0,1-2.22,0L9.75,14.5" transform="translate(-2.307 -2.861)" fill="none" stroke="#040036" stroke-linecap="round" stroke-linejoin="round" stroke-width="1"/>
</svg>