<svg xmlns="http://www.w3.org/2000/svg" width="35.705" height="21.474" viewBox="0 0 35.705 21.474">
  <path id="Exclusion_2" data-name="Exclusion 2" d="M28.7,21.474H6.9A6.8,6.8,0,0,1,0,14.806a6.532,6.532,0,0,1,1.654-4.331,6.922,6.922,0,0,1,3-1.974.533.533,0,0,0,.354-.391A5.8,5.8,0,0,1,6.7,5.1a6.165,6.165,0,0,1,4.281-1.7,6.332,6.332,0,0,1,2.489.514.554.554,0,0,0,.22.045.535.535,0,0,0,.426-.208A9.337,9.337,0,0,1,16.7,1.418a9.723,9.723,0,0,1,11.44.972A9.022,9.022,0,0,1,31.19,8.246a.515.515,0,0,0,.324.424,6.624,6.624,0,0,1,4.179,5.754,6.445,6.445,0,0,1-1.861,4.932A7.109,7.109,0,0,1,28.7,21.474ZM17.852,6.1A6.769,6.769,0,0,0,13.12,7.994a6.311,6.311,0,0,0,0,9.145,6.861,6.861,0,0,0,9.465,0,6.311,6.311,0,0,0,0-9.145A6.769,6.769,0,0,0,17.852,6.1Zm0,9.9a.618.618,0,0,1-.627-.607V9.737a.628.628,0,0,1,1.255,0V15.4A.618.618,0,0,1,17.852,16Zm2.091-1.213a.618.618,0,0,1-.627-.606V10.95a.628.628,0,0,1,1.255,0v3.233A.618.618,0,0,1,19.944,14.789Zm-4.183,0a.618.618,0,0,1-.627-.606V10.95a.628.628,0,0,1,1.255,0v3.233A.618.618,0,0,1,15.761,14.789Zm6.275-1.01a.618.618,0,0,1-.628-.606V11.96a.628.628,0,0,1,1.255,0v1.213A.618.618,0,0,1,22.036,13.779Zm-8.367,0a.618.618,0,0,1-.628-.606V11.96a.628.628,0,0,1,1.255,0v1.213A.618.618,0,0,1,13.669,13.779Z" fill="#6c3dff"/>
</svg>
