<svg xmlns="http://www.w3.org/2000/svg" width="474.528" height="464.989" viewBox="0 0 474.528 464.989">
  <g id="Group_17" data-name="Group 17" transform="translate(-1446.065 -219.643)">
    <path id="Path_13047" data-name="Path 13047" d="M2169.1,111.7c-42.651,200.053-161.464,435.648-303.634,313.788s70.961-209.6,152.77-133.741,23.926,238.337-71.53,272.864-231.533-24.372-231.533-24.372" transform="translate(-249.099 108.532)" fill="none" stroke="#a68aff" stroke-linecap="round" stroke-width="1" stroke-dasharray="3 7"/>
    <path id="Path_13048" data-name="Path 13048" d="M19.233,83.642l-.948-.949a1.619,1.619,0,0,0-1.15-.468A1.549,1.549,0,0,0,16,82.694L9.85,88.839,3.7,82.694a1.549,1.549,0,0,0-1.138-.468,1.619,1.619,0,0,0-1.151.468l-.936.949A1.569,1.569,0,0,0,0,84.793a1.5,1.5,0,0,0,.48,1.138l8.232,8.232a1.5,1.5,0,0,0,1.138.48A1.569,1.569,0,0,0,11,94.163l8.232-8.232a1.549,1.549,0,0,0,.468-1.138A1.619,1.619,0,0,0,19.233,83.642Z" transform="matrix(-0.454, 0.891, -0.891, -0.454, 1539.337, 675.556)" fill="#a68aff"/>
  </g>
</svg>
