<svg xmlns="http://www.w3.org/2000/svg" width="30.604" height="21.518" viewBox="0 0 30.604 21.518">
  <g id="mail" transform="translate(0 -76)">
    <g id="Group_8" data-name="Group 8" transform="translate(21.053 77.537)">
      <g id="Group_7" data-name="Group 7" transform="translate(0 0)">
        <path id="Path_16" data-name="Path 16" d="M361.493,101.721l-9.282,9.222,9.282,9.222a2.659,2.659,0,0,0,.27-1.152V102.873A2.659,2.659,0,0,0,361.493,101.721Z" transform="translate(-352.211 -101.721)" fill="#acf54b"/>
      </g>
    </g>
    <g id="Group_10" data-name="Group 10" transform="translate(1.537 76)">
      <g id="Group_9" data-name="Group 9" transform="translate(0 0)">
        <path id="Path_17" data-name="Path 17" d="M52.1,76H26.873a2.659,2.659,0,0,0-1.152.27l11.863,11.8a2.692,2.692,0,0,0,3.8,0L53.25,76.27A2.658,2.658,0,0,0,52.1,76Z" transform="translate(-25.721 -76)" fill="#acf54b"/>
      </g>
    </g>
    <g id="Group_12" data-name="Group 12" transform="translate(0 77.537)">
      <g id="Group_11" data-name="Group 11" transform="translate(0 0)">
        <path id="Path_18" data-name="Path 18" d="M.27,101.721A2.659,2.659,0,0,0,0,102.873v16.139a2.658,2.658,0,0,0,.27,1.152l9.282-9.222Z" transform="translate(0 -101.721)" fill="#acf54b"/>
      </g>
    </g>
    <g id="Group_14" data-name="Group 14" transform="translate(1.537 88.027)">
      <g id="Group_13" data-name="Group 13">
        <path id="Path_19" data-name="Path 19" d="M43.969,277.211l-1.313,1.313a4.488,4.488,0,0,1-6.339,0L35,277.211l-9.282,9.222a2.659,2.659,0,0,0,1.152.27H52.1a2.659,2.659,0,0,0,1.152-.27Z" transform="translate(-25.721 -277.211)" fill="#acf54b"/>
      </g>
    </g>
  </g>
</svg>
