<svg xmlns="http://www.w3.org/2000/svg" width="21.207" height="24.973" viewBox="0 0 21.207 24.973">
  <path id="icons8-google-play" d="M7.721,3.211l11,11,2.84-2.84c-3.88-2.354-9.077-5.512-11.414-6.932L8.585,3.493A1.944,1.944,0,0,0,7.721,3.211ZM6.041,4.528A2.027,2.027,0,0,0,6,4.9V26.645a1.782,1.782,0,0,0,.031.263L17.226,15.713Zm17.39,7.978-3.206,3.206,3.15,3.15,2.953-1.792a1.669,1.669,0,0,0,.878-1.442,1.607,1.607,0,0,0-.874-1.371C26.211,14.189,25.071,13.5,23.431,12.507Zm-4.706,4.706L7.754,28.184a1.784,1.784,0,0,0,.63-.224L21.509,20Z" transform="translate(-6 -3.211)" fill="#040036"/>
</svg>
