<svg xmlns="http://www.w3.org/2000/svg" width="163.816" height="205.97" viewBox="0 0 163.816 205.97">
  <g id="Group_18" data-name="Group 18" transform="translate(-1383.554 -163.375)">
    <path id="Path_13050" data-name="Path 13050" d="M15.386,83.359l-.759-.759a1.3,1.3,0,0,0-.92-.374,1.239,1.239,0,0,0-.911.374L7.88,87.517,2.964,82.6a1.239,1.239,0,0,0-.91-.374,1.3,1.3,0,0,0-.92.374l-.749.759A1.255,1.255,0,0,0,0,84.28a1.2,1.2,0,0,0,.384.91L6.97,91.776a1.2,1.2,0,0,0,.91.384,1.255,1.255,0,0,0,.92-.384l6.585-6.585a1.239,1.239,0,0,0,.374-.91A1.3,1.3,0,0,0,15.386,83.359Z" transform="matrix(0.829, 0.559, -0.559, 0.829, 1565.294, 284.128)" fill="#ff9a9a"/>
    <path id="Path_13049" data-name="Path 13049" d="M1729.916,32s31.877,103.8-6.865,125.889-100.313-21.674-81.435-61.147S1765.721,62.5,1791.7,101.255s-12.013,123.565-12.013,123.565" transform="translate(-254 132)" fill="none" stroke="#ff9a9a" stroke-linecap="round" stroke-width="1" stroke-dasharray="4 6"/>
  </g>
</svg>
