<svg xmlns="http://www.w3.org/2000/svg" width="22.531" height="30.042" viewBox="0 0 22.531 30.042">
  <path id="Path_15" data-name="Path 15" d="M86.348,6.442,80.087.183A.625.625,0,0,0,79.644,0H66.5A2.506,2.506,0,0,0,64,2.5V27.538a2.506,2.506,0,0,0,2.5,2.5H84.028a2.506,2.506,0,0,0,2.5-2.5V6.885A.625.625,0,0,0,86.348,6.442Zm-12.96,5.449a.626.626,0,0,1,.626-.626h2.5a.626.626,0,0,1,.626.626v2.5a.626.626,0,0,1-.626.626h-2.5a.626.626,0,0,1-.626-.626Zm-5.633,1.252a1.88,1.88,0,0,1,1.878-1.878H71.51a.626.626,0,0,1,.626.626v2.5a.626.626,0,0,1-.626.626H68.381a.626.626,0,0,1-.626-.626ZM71.51,25.661a.626.626,0,0,1-.626.626H69.633a1.88,1.88,0,0,1-1.878-1.878V23.157a.626.626,0,0,1,.626-.626h2.5a.626.626,0,0,1,.626.626v2.5Zm5.007,0a.626.626,0,0,1-.626.626h-2.5a.626.626,0,0,1-.626-.626v-2.5a.626.626,0,0,1,.626-.626h2.5a.626.626,0,0,1,.626.626v2.5Zm6.259-1.252A1.88,1.88,0,0,1,80.9,26.287h-2.5a.626.626,0,0,1-.626-.626V21.905a.626.626,0,0,0-.626-.626H68.381a.626.626,0,0,1-.626-.626V16.9a.626.626,0,0,1,.626-.626H82.15a.626.626,0,0,1,.626.626v7.51Zm0-10.014a.626.626,0,0,1-.626.626H79.021a.626.626,0,0,1-.626-.626v-2.5a.626.626,0,0,1,.626-.626H80.9a1.88,1.88,0,0,1,1.878,1.878Z" transform="translate(-64)" fill="#4b8dff"/>
</svg>
