<svg xmlns="http://www.w3.org/2000/svg" width="23.193" height="23.192" viewBox="0 0 23.193 23.192">
  <path id="Subtraction_1" data-name="Subtraction 1" d="M-254,155.192v0l1.914-5.216A11.549,11.549,0,0,1-254,143.6a11.52,11.52,0,0,1,3.4-8.2,11.52,11.52,0,0,1,8.2-3.4,11.52,11.52,0,0,1,8.2,3.4,11.52,11.52,0,0,1,3.4,8.2,11.52,11.52,0,0,1-3.4,8.2,11.52,11.52,0,0,1-8.2,3.4,11.558,11.558,0,0,1-6.2-1.8l-5.4,1.8Zm6.486-17.595c-.038,0-.074,0-.113.005a1.282,1.282,0,0,0-.875.457,1.273,1.273,0,0,0-.294.938,12.757,12.757,0,0,0,1.975,5.567,12.623,12.623,0,0,0,3.86,3.852,12.816,12.816,0,0,0,5.552,1.972c.035,0,.072,0,.122,0a1.279,1.279,0,0,0,.908-.379,1.274,1.274,0,0,0,.373-.909v-1.927a1.284,1.284,0,0,0-1.107-1.3,8.285,8.285,0,0,1-1.807-.449,1.287,1.287,0,0,0-.453-.082,1.28,1.28,0,0,0-.9.371l-.816.815a10.285,10.285,0,0,1-3.86-3.853l.816-.815a1.286,1.286,0,0,0,.29-1.354,8.206,8.206,0,0,1-.45-1.8,1.293,1.293,0,0,0-1.274-1.105h-1.942Z" transform="translate(254.002 -132)" fill="#bf3dff"/>
</svg>
