<svg xmlns="http://www.w3.org/2000/svg" width="28.104" height="20.972" viewBox="0 0 28.104 20.972">
  <path id="Subtraction_2" data-name="Subtraction 2" d="M14.03,19.972c-.622,0-1.256-.008-1.869-.015l-.848-.01c-.412,0-.832-.012-1.237-.02l-.624-.012c-.666-.012-1.342-.029-2.009-.049-.448-.011-.9-.03-1.281-.048l-.31-.015c-.408-.019-.829-.038-1.241-.08l-.022,0a7.826,7.826,0,0,1-1.872-.336A3.18,3.18,0,0,1,.7,17.37a8.755,8.755,0,0,1-.43-1.687c-.041-.267-.061-.54-.081-.8-.006-.075-.011-.144-.016-.213C.131,14.13.1,13.693.067,13.293c-.021-.313-.043-.637-.046-.962C.007,10.889,0,9.627,0,8.474c0-.407.015-.839.046-1.359V7.1c.029-.541.06-1.1.113-1.65s.113-1.1.207-1.633a5.45,5.45,0,0,1,.65-1.88A3.21,3.21,0,0,1,3.034.448,7.7,7.7,0,0,1,4.213.275h.013c.46-.042.93-.069,1.384-.095l.4-.024C6.2.143,6.387.135,6.556.13L6.85.121C7.318.106,7.8.091,8.281.081L9.307.058c1-.023,2.041-.046,3.061-.054q.541,0,1.082,0c.69,0,1.392,0,2.071.009L16.4.015c.621.005,1.255.024,1.867.041l.188.005c.634.018,1.3.041,2.1.073.52.02.976.044,1.393.072.458.029.991.064,1.512.12a3.5,3.5,0,0,1,2.4,1.279,3.286,3.286,0,0,1,.6,1.2c.145.5.266,1,.36,1.475a5.8,5.8,0,0,1,.078.715c.007.1.013.2.022.3l.016.183c.024.273.05.556.07.834.019.262.039.542.046.821.006.2,0,.4,0,.595,0,.08,0,.16,0,.239H27.1q0,.444,0,.888c0,.825,0,1.676-.008,2.511-.006.626-.034,1.239-.067,1.917-.017.346-.046.7-.073,1.038-.012.151-.025.3-.036.454a9.314,9.314,0,0,1-.518,2.573,3.3,3.3,0,0,1-2.488,2.209,7.781,7.781,0,0,1-1.089.14l-.063.005c-.461.039-.93.067-1.385.093l-.458.027c-.2.013-.4.021-.555.025l-.3.01c-.456.015-.923.03-1.385.04l-.971.021c-1.029.023-2.088.046-3.129.055ZM10.751,5.688v8q2.191-1.2,4.374-2.382l2.947-1.6C15.672,8.382,13.336,7.1,10.751,5.688Z" transform="translate(0.5 0.5)" fill="#fff" stroke="rgba(0,0,0,0)" stroke-miterlimit="10" stroke-width="1"/>
</svg>
