<svg xmlns="http://www.w3.org/2000/svg" width="22.465" height="15.796" viewBox="0 0 22.465 15.796">
  <g id="mail" transform="translate(0 -76)">
    <g id="Group_8" data-name="Group 8" transform="translate(15.454 77.129)">
      <g id="Group_7" data-name="Group 7" transform="translate(0 0)">
        <path id="Path_16" data-name="Path 16" d="M359.024,101.721l-6.813,6.769,6.813,6.769a1.952,1.952,0,0,0,.2-.846V102.567A1.952,1.952,0,0,0,359.024,101.721Z" transform="translate(-352.211 -101.721)" fill="#4bccf5"/>
      </g>
    </g>
    <g id="Group_10" data-name="Group 10" transform="translate(1.129 76)">
      <g id="Group_9" data-name="Group 9" transform="translate(0 0)">
        <path id="Path_17" data-name="Path 17" d="M45.083,76H26.567a1.951,1.951,0,0,0-.846.2l8.708,8.664a1.976,1.976,0,0,0,2.792,0L45.929,76.2A1.951,1.951,0,0,0,45.083,76Z" transform="translate(-25.721 -76)" fill="#4bccf5"/>
      </g>
    </g>
    <g id="Group_12" data-name="Group 12" transform="translate(0 77.129)">
      <g id="Group_11" data-name="Group 11" transform="translate(0 0)">
        <path id="Path_18" data-name="Path 18" d="M.2,101.721a1.952,1.952,0,0,0-.2.846v11.847a1.951,1.951,0,0,0,.2.846l6.813-6.769Z" transform="translate(0 -101.721)" fill="#4bccf5"/>
      </g>
    </g>
    <g id="Group_14" data-name="Group 14" transform="translate(1.129 84.829)">
      <g id="Group_13" data-name="Group 13">
        <path id="Path_19" data-name="Path 19" d="M39.116,277.211l-.964.964a3.294,3.294,0,0,1-4.653,0l-.964-.964-6.813,6.769a1.952,1.952,0,0,0,.846.2H45.083a1.952,1.952,0,0,0,.846-.2Z" transform="translate(-25.721 -277.211)" fill="#4bccf5"/>
      </g>
    </g>
  </g>
</svg>
