<svg xmlns="http://www.w3.org/2000/svg" width="27.091" height="15.917" viewBox="0 0 27.091 15.917">
  <g id="video-camera" transform="translate(0 -96.512)">
    <g id="Group_3" data-name="Group 3" transform="translate(0 96.512)">
      <g id="Group_2" data-name="Group 2" transform="translate(0 0)">
        <path id="Path_10" data-name="Path 10" d="M15.324,96.512H2.964A2.973,2.973,0,0,0,0,99.476v9.989a2.973,2.973,0,0,0,2.964,2.964h12.36a2.973,2.973,0,0,0,2.964-2.964V99.476A2.954,2.954,0,0,0,15.324,96.512Z" transform="translate(0 -96.512)" fill="#87ff7e"/>
      </g>
    </g>
    <g id="Group_5" data-name="Group 5" transform="translate(19.77 98.094)">
      <g id="Group_4" data-name="Group 4" transform="translate(0 0)">
        <path id="Path_11" data-name="Path 11" d="M346.632,123.9a1.51,1.51,0,0,0-.5.207L341.5,126.77v6.876l4.654,2.668a1.762,1.762,0,0,0,2.43-.652,1.811,1.811,0,0,0,.237-.889v-9.159A1.784,1.784,0,0,0,346.632,123.9Z" transform="translate(-341.504 -123.847)" fill="#87ff7e"/>
      </g>
    </g>
  </g>
</svg>
