<svg xmlns="http://www.w3.org/2000/svg" width="25.568" height="20.179" viewBox="0 0 25.568 20.179">
  <g id="chat-bubbles-with-ellipsis" transform="translate(0 -3.24)">
    <path id="Path_12" data-name="Path 12" d="M25.245,9.67h-.7v7.7a2.084,2.084,0,0,1-2.1,2.282H8.743v.366a2.469,2.469,0,0,0,2.443,2.129H21.664L25.673,24.5l-.581-2.357h.154a1.891,1.891,0,0,0,1.795-2.129V11.5A1.65,1.65,0,0,0,25.245,9.67Z" transform="translate(-1.472 -1.082)" fill="#eb5656"/>
    <path id="Path_13" data-name="Path 13" d="M18.931,3.24H3.012C1.612,3.24,0,4.484,0,5.683v9.648c0,1.1,1.366,1.9,2.676,2.025l-.852,3.236,5.462-3.214H18.931c1.4,0,2.693-.849,2.693-2.048V5.683A2.749,2.749,0,0,0,18.931,3.24ZM5.441,11.384A1.438,1.438,0,1,1,6.879,9.946,1.438,1.438,0,0,1,5.441,11.384Zm5.371,0A1.438,1.438,0,1,1,12.25,9.946,1.438,1.438,0,0,1,10.812,11.384Zm5.372,0a1.438,1.438,0,1,1,1.438-1.438A1.439,1.439,0,0,1,16.184,11.384Z" transform="translate(0 0)" fill="#eb5656"/>
  </g>
</svg>
