<svg xmlns="http://www.w3.org/2000/svg" width="14.034" height="18.712" viewBox="0 0 14.034 18.712">
  <g id="sim" transform="translate(-64)">
    <g id="Group_6" data-name="Group 6" transform="translate(64)">
      <path id="Path_15" data-name="Path 15" d="M77.92,4.012l-3.9-3.9A.39.39,0,0,0,73.744,0H65.559A1.561,1.561,0,0,0,64,1.559V17.152a1.561,1.561,0,0,0,1.559,1.559H76.474a1.561,1.561,0,0,0,1.559-1.559V4.288A.389.389,0,0,0,77.92,4.012ZM69.847,7.407a.39.39,0,0,1,.39-.39H71.8a.39.39,0,0,1,.39.39V8.966a.39.39,0,0,1-.39.39H70.237a.39.39,0,0,1-.39-.39Zm-3.508.78a1.171,1.171,0,0,1,1.169-1.169h1.169a.39.39,0,0,1,.39.39V8.966a.39.39,0,0,1-.39.39H66.729a.39.39,0,0,1-.39-.39Zm2.339,7.8a.39.39,0,0,1-.39.39h-.78A1.171,1.171,0,0,1,66.339,15.2v-.78a.39.39,0,0,1,.39-.39h1.559a.39.39,0,0,1,.39.39v1.559Zm3.119,0a.39.39,0,0,1-.39.39H69.847a.39.39,0,0,1-.39-.39V14.424a.39.39,0,0,1,.39-.39h1.559a.39.39,0,0,1,.39.39v1.559Zm3.9-.78a1.171,1.171,0,0,1-1.169,1.169H72.966a.39.39,0,0,1-.39-.39V13.644a.39.39,0,0,0-.39-.39H66.729a.39.39,0,0,1-.39-.39V10.525a.39.39,0,0,1,.39-.39H75.3a.39.39,0,0,1,.39.39V15.2Zm0-6.237a.39.39,0,0,1-.39.39H73.356a.39.39,0,0,1-.39-.39V7.407a.39.39,0,0,1,.39-.39h1.169a1.171,1.171,0,0,1,1.169,1.169Z" transform="translate(-64)" fill="#4b8dff"/>
    </g>
  </g>
</svg>
