<svg xmlns="http://www.w3.org/2000/svg" width="23.705" height="15.474" viewBox="0 0 23.705 15.474">
  <path id="Exclusion_6" data-name="Exclusion 6" d="M19.054,15.474H4.583A4.7,4.7,0,0,1,0,10.669,4.943,4.943,0,0,1,1.1,7.548,4.585,4.585,0,0,1,3.09,6.126a.375.375,0,0,0,.235-.282A4.279,4.279,0,0,1,4.447,3.678a3.9,3.9,0,0,1,4.495-.853.343.343,0,0,0,.429-.117,6.412,6.412,0,0,1,1.717-1.686,6.055,6.055,0,0,1,7.6.7,6.7,6.7,0,0,1,2.024,4.22.368.368,0,0,0,.215.306A4.76,4.76,0,0,1,23.7,10.394a4.873,4.873,0,0,1-1.236,3.554A4.54,4.54,0,0,1,19.054,15.474ZM11.852,4.4A4.313,4.313,0,0,0,8.71,5.761a4.82,4.82,0,0,0,0,6.59,4.3,4.3,0,0,0,6.284,0,4.82,4.82,0,0,0,0-6.59A4.313,4.313,0,0,0,11.852,4.4Zm0,7.135a.428.428,0,0,1-.416-.437V7.017a.417.417,0,1,1,.833,0v4.077A.428.428,0,0,1,11.852,11.531Zm1.389-.874a.427.427,0,0,1-.416-.437V7.891a.417.417,0,1,1,.833,0v2.33A.428.428,0,0,1,13.241,10.657Zm-2.777,0a.427.427,0,0,1-.416-.437V7.891a.417.417,0,1,1,.833,0v2.33A.427.427,0,0,1,10.464,10.657Zm4.166-.728a.428.428,0,0,1-.417-.437V8.619a.417.417,0,1,1,.833,0v.874A.427.427,0,0,1,14.63,9.929Zm-5.555,0a.428.428,0,0,1-.417-.437V8.619a.417.417,0,1,1,.833,0v.874A.427.427,0,0,1,9.075,9.929Z" fill="#6c3dff"/>
</svg>
