<svg id="Group_111" data-name="Group 111" xmlns="http://www.w3.org/2000/svg" width="20" height="20.267" viewBox="0 0 20 20.267">
  <g id="Group_110" data-name="Group 110">
    <line id="Line_38" data-name="Line 38" x2="11.429" transform="translate(4.286 10.714)" fill="none" stroke="#46f8e0" stroke-linecap="round" stroke-linejoin="round" stroke-width="1.429"/>
    <line id="Line_39" data-name="Line 39" y2="2.857" transform="translate(10 7.857)" fill="none" stroke="#46f8e0" stroke-linecap="round" stroke-linejoin="round" stroke-width="1.429"/>
    <path id="Path_13148" data-name="Path 13148" d="M6.429,10.714c0,3.314,3.086,6.114,7.143,8.571" fill="none" stroke="#46f8e0" stroke-linecap="round" stroke-linejoin="round" stroke-width="1.429"/>
    <path id="Path_13149" data-name="Path 13149" d="M13.571,10.714c.071,3.314-3.086,6.114-7.143,8.571" fill="none" stroke="#46f8e0" stroke-linecap="round" stroke-linejoin="round" stroke-width="1.429"/>
    <path id="Path_13150" data-name="Path 13150" d="M.714,5.714a5,5,0,0,1,5-5" fill="none" stroke="#46f8e0" stroke-linecap="round" stroke-linejoin="round" stroke-width="1.429"/>
    <path id="Path_13151" data-name="Path 13151" d="M.714,5.714a5,5,0,0,1,5-5" fill="none" stroke="#46f8e0" stroke-linecap="round" stroke-linejoin="round" stroke-width="1.429"/>
    <path id="Path_13152" data-name="Path 13152" d="M4.286,5.714A1.429,1.429,0,0,1,5.714,4.286" fill="none" stroke="#46f8e0" stroke-linecap="round" stroke-linejoin="round" stroke-width="1.429"/>
    <path id="Path_13153" data-name="Path 13153" d="M4.286,5.714A1.429,1.429,0,0,1,5.714,4.286" fill="none" stroke="#46f8e0" stroke-linecap="round" stroke-linejoin="round" stroke-width="1.429"/>
    <path id="Path_13154" data-name="Path 13154" d="M14.286.714a5,5,0,0,1,5,5" fill="none" stroke="#46f8e0" stroke-linecap="round" stroke-linejoin="round" stroke-width="1.429"/>
    <path id="Path_13155" data-name="Path 13155" d="M14.286.714a5,5,0,0,1,5,5" fill="none" stroke="#46f8e0" stroke-linecap="round" stroke-linejoin="round" stroke-width="1.429"/>
    <path id="Path_13156" data-name="Path 13156" d="M14.286,4.286a1.429,1.429,0,0,1,1.429,1.429" fill="none" stroke="#46f8e0" stroke-linecap="round" stroke-linejoin="round" stroke-width="1.429"/>
    <path id="Path_13157" data-name="Path 13157" d="M14.286,4.286a1.429,1.429,0,0,1,1.429,1.429" fill="none" stroke="#46f8e0" stroke-linecap="round" stroke-linejoin="round" stroke-width="1.429"/>
  </g>
</svg>
