<svg xmlns="http://www.w3.org/2000/svg" width="30.159" height="30.173" viewBox="0 0 30.159 30.173">
  <g id="Group_79" data-name="Group 79" transform="translate(0.001 0.048)">
    <path id="Path_13105" data-name="Path 13105" d="M29.252,7.537a1.677,1.677,0,0,0-.772-1.126l-4.414,4.414a2.207,2.207,0,0,1-3.178,0l-1.677-1.5a2.207,2.207,0,0,1,0-3.09l4.414-4.414A1.677,1.677,0,0,0,22.564.872a8.387,8.387,0,0,0-9.137,11.984L1.377,24.8a2.207,2.207,0,0,0,0,3.156l.795.795a2.207,2.207,0,0,0,3.156,0l12.05-12.028A8.409,8.409,0,0,0,29.252,7.537Z" transform="translate(0)" fill="#f7f5ff" stroke="#6c3dff" stroke-linecap="round" stroke-linejoin="round" stroke-width="1.429"/>
  </g>
</svg>
