<svg xmlns="http://www.w3.org/2000/svg" width="20.034" height="19.405" viewBox="0 0 20.034 19.405">
  <g id="collaboration" transform="translate(0 -0.501)">
    <path id="Path_13183" data-name="Path 13183" d="M302.279,295.676l-1.9-1.9-3.927,3.927a4.762,4.762,0,0,1-2.536,1.329l2.5,2.5a.587.587,0,0,0,.83,0l5.029-5.029A.587.587,0,0,0,302.279,295.676Zm0,0" transform="translate(-282.418 -281.801)" fill="#4b8dff"/>
    <path id="Path_13184" data-name="Path 13184" d="M17.19,37.846a1.7,1.7,0,0,0,0-2.4l0,0a1.7,1.7,0,0,0-.563-.374,1.7,1.7,0,0,0-.379-1.825l0,0a1.7,1.7,0,0,0-.559-.37,1.7,1.7,0,0,0-.379-1.825h0a1.694,1.694,0,0,0-.563-.374,1.7,1.7,0,0,0-.379-1.826h0a1.7,1.7,0,0,0-2.4,0l-1.113,1.113.569.569a2.433,2.433,0,0,1-1.138,4.082A2.432,2.432,0,0,1,8.5,36.385a2.437,2.437,0,0,1-1.779,1.779A2.432,2.432,0,0,1,2.639,39.3l-.569-.569-1.9,1.9a.587.587,0,0,0,0,.83L5.2,46.49a.587.587,0,0,0,.83,0l3.6-3.6h1.014a3.6,3.6,0,0,0,2.561-1.061Zm0,0" transform="translate(0 -26.756)" fill="#4b8dff"/>
    <path id="Path_13185" data-name="Path 13185" d="M56.608,41.7a1.258,1.258,0,1,0,1.779-1.779,1.258,1.258,0,1,0,1.779-1.779,1.258,1.258,0,1,0,1.779-1.779,1.258,1.258,0,0,0,1.779-1.779l-2.509-2.509a1.258,1.258,0,0,0-1.779,1.779l.314.314a1.258,1.258,0,1,0-1.779,1.779l.629.629a1.258,1.258,0,0,0-1.779,1.779l.629.629a1.258,1.258,0,0,0-1.779,1.779Zm0,0" transform="translate(-53.139 -29.983)" fill="#4b8dff"/>
    <path id="Path_13186" data-name="Path 13186" d="M230.532,1.257a2.9,2.9,0,0,1,.274-.241l-.343-.343a.587.587,0,0,0-.677-.11l-1.449.724,1.082,1.083Zm0,0" transform="translate(-219.402 0)" fill="#4b8dff"/>
  </g>
</svg>
