<svg xmlns="http://www.w3.org/2000/svg" width="21.818" height="20" viewBox="0 0 21.818 20">
  <g id="online-shopping" transform="translate(0 -1)">
    <path id="Path_13187" data-name="Path 13187" d="M19.091,1H2.727A2.731,2.731,0,0,0,0,3.727V9.518a3.288,3.288,0,0,0,5.75,2.191,3.481,3.481,0,0,0,5.159-.07,3.481,3.481,0,0,0,5.159.07,3.288,3.288,0,0,0,5.75-2.191V3.727A2.731,2.731,0,0,0,19.091,1ZM4.783,9.3v.217a1.482,1.482,0,0,1-2.965,0V6.455H4.783ZM10,9.3a1.7,1.7,0,1,1-3.4,0V6.455H10Zm5.217,0a1.7,1.7,0,1,1-3.4,0V6.455h3.4ZM20,9.518a1.482,1.482,0,0,1-2.965,0V6.455H20Z" fill="#6c3dff"/>
    <path id="Path_13188" data-name="Path 13188" d="M20,15.658v3.857a.91.91,0,0,1-.909.909H2.727a.91.91,0,0,1-.909-.909V15.658A5.121,5.121,0,0,1,0,14.666v4.849a2.731,2.731,0,0,0,2.727,2.727H19.091a2.731,2.731,0,0,0,2.727-2.727V14.666A5.107,5.107,0,0,1,20,15.658Z" transform="translate(0 -1.242)" fill="#6c3dff"/>
  </g>
</svg>
