<svg xmlns="http://www.w3.org/2000/svg" width="22.681" height="23.777" viewBox="0 0 22.681 23.777">
  <g id="Group_130" data-name="Group 130" transform="translate(-0.664 -0.214)">
    <g id="Group_129" data-name="Group 129" transform="translate(1.169 0.714)">
      <circle id="Ellipse_50" data-name="Ellipse 50" cx="7.886" cy="7.886" r="7.886" transform="translate(2.72)" fill="#87ff7e" stroke="#fff" stroke-linecap="round" stroke-linejoin="round" stroke-width="1"/>
      <circle id="Ellipse_51" data-name="Ellipse 51" cx="3.505" cy="3.505" r="3.505" transform="translate(7.101 4.381)" fill="#fff"/>
      <path id="Path_13163" data-name="Path 13163" d="M10.249,13.917,8.707,20.4a.894.894,0,0,1-.456.578.946.946,0,0,1-.754,0L1.68,18.438a.894.894,0,0,1-.315-1.367l4.5-5.643" transform="translate(-1.169 1.714)" fill="#87ff7e" stroke="#fff" stroke-linecap="round" stroke-linejoin="round" stroke-width="1"/>
      <path id="Path_13164" data-name="Path 13164" d="M11.429,13.891l1.577,6.571a.876.876,0,0,0,.473.578.894.894,0,0,0,.736,0L20,18.5a.876.876,0,0,0,.491-.613.841.841,0,0,0-.175-.754l-4.7-5.975" transform="translate(1.157 1.653)" fill="#87ff7e" stroke="#fff" stroke-linecap="round" stroke-linejoin="round" stroke-width="1"/>
    </g>
  </g>
</svg>
