<svg xmlns="http://www.w3.org/2000/svg" width="20.995" height="20.957" viewBox="0 0 20.995 20.957">
  <g id="Group_136" data-name="Group 136" transform="translate(0.052 -0.051)">
    <g id="Group_135" data-name="Group 135" transform="translate(0.718 0.782)">
      <path id="Path_13169" data-name="Path 13169" d="M3.921,12.2c-2.68,3.553-3.885,6.625-2.816,7.694,1.506,1.506,6.926-1.506,12.045-6.685S21.341,2.668,19.836,1.162c-.964-.979-3.583,0-6.73,2.123" transform="translate(-0.718 -0.782)" fill="none" stroke="#f6c72d" stroke-linecap="round" stroke-linejoin="round" stroke-width="1.429"/>
      <path id="Path_13170" data-name="Path 13170" d="M17.715,7.029a7.528,7.528,0,0,1-6.851,10.66A7.619,7.619,0,0,1,7.929,17.1" transform="translate(-0.329 -0.445)" fill="none" stroke="#f6c72d" stroke-linecap="round" stroke-linejoin="round" stroke-width="1.429"/>
      <path id="Path_13171" data-name="Path 13171" d="M5.077,14.9A7.528,7.528,0,0,1,15.617,4.363" transform="translate(-0.564 -0.67)" fill="none" stroke="#f6c72d" stroke-linecap="round" stroke-linejoin="round" stroke-width="1.429"/>
    </g>
  </g>
</svg>
