<svg xmlns="http://www.w3.org/2000/svg" width="19.001" height="16.037" viewBox="0 0 19.001 16.037">
  <g id="deal" transform="translate(0 -39.939)">
    <path id="Path_13325" data-name="Path 13325" d="M161.809,45.968l-3.377-5.755a.557.557,0,0,0-.758-.2l-2.024,1.169-1.823-.671a2.056,2.056,0,0,0-.2-.063,2.034,2.034,0,0,0-1.522.211l-3.014,1.74a1.392,1.392,0,1,0,1.392,2.41l3.307-1.909a1.113,1.113,0,0,1,1.113,0l6.684,3.861.1-.082a.557.557,0,0,0,.126-.712Z" transform="translate(-142.885)" fill="#fa9950"/>
    <path id="Path_13326" data-name="Path 13326" d="M18.078,69.151l-6.62-3.822L8.152,67.238a2.49,2.49,0,0,1-1.248.337,2.52,2.52,0,0,1-.652-.086,2.505,2.505,0,0,1-.892-4.4l-1.365-.788a.557.557,0,0,0-.769.219L.066,68.414a.557.557,0,0,0,.212.745l.289.167.508-.88a2.369,2.369,0,0,1,3.781-.43,2.364,2.364,0,0,1,3.093,1.61c.018.067.032.135.044.2a2.366,2.366,0,0,1,1.754,1.693c.018.067.032.135.044.2a2.366,2.366,0,0,1,1.518,3.488l-.694,1.2,1.487.858A1.253,1.253,0,0,0,13.356,75.1l.964.557a1.253,1.253,0,0,0,1.253-2.169l.643.371a1.253,1.253,0,0,0,1.252-2.169l-.643-.371a1.253,1.253,0,0,0,1.253-2.169Z" transform="translate(0 -21.465)" fill="#fa9950"/>
    <path id="Path_13327" data-name="Path 13327" d="M23.55,232.41a1.253,1.253,0,0,0-1.711.458l.371-.643a1.253,1.253,0,0,0-2.169-1.253l.371-.643a1.253,1.253,0,0,0-2.169-1.253l-.371.643a1.253,1.253,0,0,0-2.169-1.253l-1.345,2.33a1.252,1.252,0,1,0,2.169,1.252A1.253,1.253,0,1,0,18.7,233.3a1.253,1.253,0,0,0,2.169,1.252,1.252,1.252,0,1,0,2.169,1.252l.974-1.687A1.252,1.252,0,0,0,23.55,232.41Z" transform="translate(-13.662 -180.93)" fill="#fa9950"/>
  </g>
</svg>

