<svg xmlns="http://www.w3.org/2000/svg" width="11.162" height="18.339" viewBox="0 0 11.162 18.339">
  <path id="Path_13331" data-name="Path 13331" d="M10.031,1.481,1.57.195A1.364,1.364,0,0,0,.477.5,1.377,1.377,0,0,0,0,1.527v16.22a.772.772,0,0,0,.77.77h2.5V14.475a1.344,1.344,0,0,1,1.347-1.347H6.544a1.344,1.344,0,0,1,1.347,1.347v4.042h3.272V2.812a1.348,1.348,0,0,0-1.132-1.332ZM4.234,11.4H3.079a.577.577,0,1,1,0-1.155H4.234a.577.577,0,1,1,0,1.155Zm0-2.309H3.079a.577.577,0,1,1,0-1.155H4.234a.577.577,0,1,1,0,1.155Zm0-2.309H3.079a.577.577,0,0,1,0-1.155H4.234a.577.577,0,0,1,0,1.155Zm0-2.309H3.079a.577.577,0,1,1,0-1.155H4.234a.577.577,0,1,1,0,1.155ZM8.083,11.4H6.928a.577.577,0,1,1,0-1.155H8.083a.577.577,0,1,1,0,1.155Zm0-2.309H6.928a.577.577,0,0,1,0-1.155H8.083a.577.577,0,1,1,0,1.155Zm0-2.309H6.928a.577.577,0,0,1,0-1.155H8.083a.577.577,0,0,1,0,1.155Zm0-2.309H6.928a.577.577,0,0,1,0-1.155H8.083a.577.577,0,1,1,0,1.155Z" transform="translate(0 -0.178)" fill="#eb5656"/>
</svg>
