<svg xmlns="http://www.w3.org/2000/svg" width="21.429" height="24.182" viewBox="0 0 21.429 24.182">
  <g id="network" transform="translate(0 -0.001)">
    <path id="Path_13328" data-name="Path 13328" d="M186.1,153.125a2.125,2.125,0,1,0-2.125,2.125A2.128,2.128,0,0,0,186.1,153.125Zm0,0" transform="translate(-173.259 -143.867)" fill="#87ff7e"/>
    <path id="Path_13329" data-name="Path 13329" d="M155.39,241a3.547,3.547,0,0,0-3.542,3.542v2.125h7.085v-2.125A3.546,3.546,0,0,0,155.39,241Zm0,0" transform="translate(-144.676 -229.617)" fill="#87ff7e"/>
    <path id="Path_13330" data-name="Path 13330" d="M20.367,15.21a2.139,2.139,0,0,0-.442-.187V9.157a2.122,2.122,0,1,0-1.683-3.866h0a2.143,2.143,0,0,0-.346.25L12.8,2.522a2.125,2.125,0,1,0-4.171,0L3.534,5.541a2.125,2.125,0,0,0-.346-.25h0A2.126,2.126,0,0,0,1.062,8.974a2.119,2.119,0,0,0,.442.183v5.866a2.13,2.13,0,0,0-.442.187,2.126,2.126,0,1,0,2.472,3.433l5.095,3.019a2.125,2.125,0,1,0,4.171,0l5.1-3.019a2.143,2.143,0,0,0,.347.25,2.126,2.126,0,0,0,2.125-3.682Zm-2.9.778a2.1,2.1,0,0,0-.246,1.408l-5.139,3.045a2.082,2.082,0,0,0-2.728,0L4.211,17.4a2.1,2.1,0,0,0-.246-1.407,2.086,2.086,0,0,0-1.044-.87V9.064A2.087,2.087,0,0,0,3.965,8.2a2.1,2.1,0,0,0,.246-1.408L9.351,3.742a2.082,2.082,0,0,0,2.728,0l5.139,3.045a2.023,2.023,0,0,0,1.29,2.277v6.055A2.086,2.086,0,0,0,17.464,15.988Zm0,0" transform="translate(0)" fill="#87ff7e"/>
  </g>
</svg>
