<svg id="Group_215" data-name="Group 215" xmlns="http://www.w3.org/2000/svg" width="20" height="20" viewBox="0 0 20 20">
  <g id="Group_214" data-name="Group 214">
    <path id="Path_13316" data-name="Path 13316" d="M17.857.714H2.143A1.429,1.429,0,0,0,.714,2.143V14.286a1.429,1.429,0,0,0,1.429,1.429H5v3.571l4.457-3.571h8.4a1.429,1.429,0,0,0,1.429-1.429V2.143A1.429,1.429,0,0,0,17.857.714Z" fill="#4873eb" stroke="#4873eb" stroke-linecap="round" stroke-linejoin="round" stroke-width="1.429"/>
    <path id="Path_13317" data-name="Path 13317" d="M7.857,6.429A2.143,2.143,0,1,1,10,8.571v.714" fill="rgba(255,255,255,0)" stroke="#fff" stroke-linecap="round" stroke-linejoin="round" stroke-width="1.429"/>
    <path id="Path_13318" data-name="Path 13318" d="M10,11.429A1.071,1.071,0,1,0,11.071,12.5,1.086,1.086,0,0,0,10,11.429Z" fill="#fff"/>
  </g>
</svg>
