<svg xmlns="http://www.w3.org/2000/svg" width="19.478" height="17.316" viewBox="0 0 19.478 17.316">
  <g id="Group_211" data-name="Group 211" transform="translate(-0.264 -1.363)">
    <g id="Group_210" data-name="Group 210">
      <path id="Path_13312" data-name="Path 13312" d="M4.814,8.357l3.629-5.8a1.557,1.557,0,0,1,1.343-.743h0a1.586,1.586,0,0,1,1.643,1.571V7.543H17.7a1.643,1.643,0,0,1,1.571,1.886L18.129,16.8a1.629,1.629,0,0,1-1.614,1.429H7.143a2.857,2.857,0,0,1-1.286-.3l-1.029-.514" fill="#ea7ba8" stroke="#fff" stroke-linecap="round" stroke-linejoin="round" stroke-width="0.9"/>
      <line id="Line_83" data-name="Line 83" y2="9.014" transform="translate(4.814 8.357)" fill="none" stroke="#fff" stroke-linecap="round" stroke-linejoin="round" stroke-width="0.9"/>
      <path id="Path_13313" data-name="Path 13313" d="M1.429,8.357H4.814v9.014H1.429a.714.714,0,0,1-.714-.714V9.071a.714.714,0,0,1,.714-.714Z" fill="#ea7ba8" stroke="#fff" stroke-linecap="round" stroke-linejoin="round" stroke-width="0.9"/>
    </g>
  </g>
</svg>
