<svg xmlns="http://www.w3.org/2000/svg" width="30.904" height="29.749" viewBox="0 0 30.904 29.749">
  <g id="Group_31" data-name="Group 31" transform="translate(1.025 1.027)">
    <path id="Path_13068" data-name="Path 13068" d="M19.464,14.5a9.468,9.468,0,1,0-13.4,4.545" transform="translate(-1.273 -1.34)" fill="none" stroke="#7beaa5" stroke-linecap="round" stroke-linejoin="round" stroke-width="2"/>
    <line id="Line_12" data-name="Line 12" y1="3.551" x2="3.551" transform="translate(9.48 5.867)" fill="none" stroke="#7beaa5" stroke-linecap="round" stroke-linejoin="round" stroke-width="2"/>
    <path id="Path_13069" data-name="Path 13069" d="M29.98,18.23l-2.509.686a.8.8,0,0,0-.568.757v3.077L16.488,23.982a5.87,5.87,0,0,0-5.468,7.1A1.562,1.562,0,0,0,12.985,32.2l6.273-1.681.544-.047,3.148,2.722a.923.923,0,0,0,.8.189L26.6,32.6a.852.852,0,0,0,.4-1.444l-1.965-2.083.4-.118L31.566,27.3a1.586,1.586,0,0,0,1.16-1.894l-1.8-6.651a.8.8,0,0,0-.947-.521Z" transform="translate(-2.887 -4.681)" fill="#7beaa5"/>
  </g>
</svg>
