<svg xmlns="http://www.w3.org/2000/svg" width="13.749" height="10.851" viewBox="0 0 13.749 10.851">
  <g id="chat-bubbles-with-ellipsis" transform="translate(0 -3.24)">
    <path id="Path_12" data-name="Path 12" d="M17.617,9.67H17.24v4.139a1.121,1.121,0,0,1-1.127,1.227H8.743v.2a1.327,1.327,0,0,0,1.314,1.145h5.635l2.156,1.267-.313-1.267h.083a1.017,1.017,0,0,0,.965-1.145V10.653A.887.887,0,0,0,17.617,9.67Z" transform="translate(-4.833 -3.554)" fill="#6c3dff"/>
    <path id="Path_13" data-name="Path 13" d="M10.18,3.24H1.62C.867,3.24,0,3.909,0,4.554V9.742c0,.594.734,1.023,1.439,1.089L.98,12.571l2.937-1.728H10.18c.753,0,1.448-.457,1.448-1.1V4.554A1.478,1.478,0,0,0,10.18,3.24ZM2.926,7.619A.773.773,0,1,1,3.7,6.846.773.773,0,0,1,2.926,7.619Zm2.888,0a.773.773,0,1,1,.773-.773A.773.773,0,0,1,5.814,7.619Zm2.889,0a.773.773,0,1,1,.773-.773A.774.774,0,0,1,8.7,7.619Z" fill="#6c3dff"/>
  </g>
</svg>
