<svg xmlns="http://www.w3.org/2000/svg" width="35.672" height="35.672" viewBox="0 0 35.672 35.672">
  <path id="Path_13107" data-name="Path 13107" d="M0,1.577A1.577,1.577,0,0,1,1.577,0H4.971A1.577,1.577,0,0,1,6.526,1.318L7.693,8.311a1.577,1.577,0,0,1-.851,1.671L4.4,11.2a17.4,17.4,0,0,0,9.626,9.626l1.22-2.441a1.577,1.577,0,0,1,1.67-.851L23.91,18.7a1.577,1.577,0,0,1,1.318,1.555v3.395a1.577,1.577,0,0,1-1.577,1.577H20.5A20.5,20.5,0,0,1,0,4.73Z" transform="matrix(-0.695, 0.719, -0.719, -0.695, 35.672, 17.525)" fill="#db2222"/>
</svg>
