<svg xmlns="http://www.w3.org/2000/svg" width="28.961" height="28.961" viewBox="0 0 28.961 28.961">
  <path id="Path_13092" data-name="Path 13092" d="M2,3.28A1.28,1.28,0,0,1,3.28,2H6.036A1.28,1.28,0,0,1,7.3,3.07l.947,5.677A1.28,1.28,0,0,1,7.554,10.1l-1.982.99a14.539,14.539,0,0,0,2.874,4.46,13.776,13.776,0,0,0,4.941,3.355l.991-1.982a1.28,1.28,0,0,1,1.356-.691l5.677.947a1.28,1.28,0,0,1,1.07,1.262V21.2a1.28,1.28,0,0,1-1.28,1.28h-2.56A16.641,16.641,0,0,1,2,5.84Z" transform="matrix(-0.695, 0.719, -0.719, -0.695, 31.789, 14.178)" fill="#fff"/>
</svg>
