<svg xmlns="http://www.w3.org/2000/svg" width="33.705" height="21.474" viewBox="0 0 33.705 21.474">
  <path id="Exclusion_14" data-name="Exclusion 14" d="M27.091,21.474H6.516A6.6,6.6,0,0,1,0,14.806a6.757,6.757,0,0,1,1.562-4.331A6.518,6.518,0,0,1,4.393,8.5a.523.523,0,0,0,.334-.391A5.891,5.891,0,0,1,6.323,5.1,5.649,5.649,0,0,1,12.714,3.92a.5.5,0,0,0,.611-.162,9.017,9.017,0,0,1,2.442-2.34,8.772,8.772,0,0,1,10.8.972,9.206,9.206,0,0,1,2.878,5.857.512.512,0,0,0,.306.424,6.738,6.738,0,0,1,2.188,10.686A6.527,6.527,0,0,1,27.091,21.474ZM16.852,6.1a6.2,6.2,0,0,0-4.468,1.894,6.572,6.572,0,0,0,0,9.145,6.217,6.217,0,0,0,8.935,0,6.572,6.572,0,0,0,0-9.145A6.2,6.2,0,0,0,16.852,6.1Zm0,9.9a.6.6,0,0,1-.592-.607V9.737a.592.592,0,1,1,1.184,0V15.4A.6.6,0,0,1,16.852,16Zm1.974-1.213a.6.6,0,0,1-.592-.606V10.95a.593.593,0,1,1,1.185,0v3.233A.6.6,0,0,1,18.827,14.789Zm-3.949,0a.6.6,0,0,1-.592-.606V10.95a.592.592,0,1,1,1.184,0v3.233A.6.6,0,0,1,14.878,14.789Zm5.924-1.01a.6.6,0,0,1-.593-.606V11.96a.593.593,0,1,1,1.185,0v1.213A.6.6,0,0,1,20.8,13.779Zm-7.9,0a.6.6,0,0,1-.593-.606V11.96a.593.593,0,1,1,1.185,0v1.213A.6.6,0,0,1,12.9,13.779Z" fill="#6c3dff"/>
</svg>
