<svg xmlns="http://www.w3.org/2000/svg" width="26" height="20.864" viewBox="0 0 26 20.864">
  <path id="Path_13061" data-name="Path 13061" d="M22.762,3.24H3.622C1.938,3.24,0,4.736,0,6.178v11.6c0,1.328,1.642,2.287,3.217,2.435L2.192,24.1,8.76,20.24h14c1.684,0,3.238-1.021,3.238-2.462V6.178A3.305,3.305,0,0,0,22.762,3.24ZM6.542,13.032A1.729,1.729,0,1,1,8.271,11.3,1.729,1.729,0,0,1,6.542,13.032Zm6.458,0A1.729,1.729,0,1,1,14.729,11.3,1.729,1.729,0,0,1,13,13.032Zm6.459,0A1.729,1.729,0,1,1,21.188,11.3,1.73,1.73,0,0,1,19.459,13.032Z" transform="translate(0 -3.24)" fill="#008cff"/>
</svg>
