<svg xmlns="http://www.w3.org/2000/svg" width="23.662" height="23.662" viewBox="0 0 23.662 23.662">
  <path id="Path_13084" data-name="Path 13084" d="M2,3.479A1.479,1.479,0,0,1,3.479,2H6.663A1.479,1.479,0,0,1,8.121,3.236L9.215,9.8a1.479,1.479,0,0,1-.8,1.568L6.127,12.506a16.322,16.322,0,0,0,9.028,9.028L16.3,19.245a1.479,1.479,0,0,1,1.566-.8l6.559,1.094A1.479,1.479,0,0,1,25.662,21v3.184a1.479,1.479,0,0,1-1.479,1.479H21.225A19.225,19.225,0,0,1,2,6.437Z" transform="translate(-2 -2)" fill="#6c3dff"/>
</svg>
