<svg xmlns="http://www.w3.org/2000/svg" width="16.496" height="22.771" viewBox="0 0 16.496 22.771">
  <g id="business-person-silhouette-wearing-tie" transform="translate(-11.162)">
    <g id="Group_171" data-name="Group 171" transform="translate(11.162 0)">
      <circle id="Ellipse_64" data-name="Ellipse 64" cx="4.839" cy="4.839" r="4.839" transform="translate(3.409 0)" fill="#4b8dff"/>
      <path id="Path_13273" data-name="Path 13273" d="M21.463,35.606H17.357a6.2,6.2,0,0,0-6.2,6.2v5.022l.013.078.346.108a28.212,28.212,0,0,0,8.424,1.359A17.312,17.312,0,0,0,27.3,46.988l.323-.164h.034V41.8A6.2,6.2,0,0,0,21.463,35.606Zm-1.1,9.747-.886,1.3a.063.063,0,0,1-.052.028h0a.062.062,0,0,1-.052-.029l-.823-1.3a.065.065,0,0,1-.01-.038l.412-6.3a.063.063,0,0,1,.063-.059h.854a.064.064,0,0,1,.064.059l.442,6.3A.061.061,0,0,1,20.367,45.353Zm-.4-6.586H18.95l-.883-1.825a.316.316,0,0,1,.317-.316H20.5a.316.316,0,0,1,.316.316Z" transform="translate(-11.162 -25.598)" fill="#4b8dff"/>
    </g>
  </g>
</svg>
