<svg xmlns="http://www.w3.org/2000/svg" width="24" height="23.999" viewBox="0 0 24 23.999">
  <g id="rocket" transform="translate(0 -0.001)">
    <path id="Path_13271" data-name="Path 13271" d="M23.508,0A18.585,18.585,0,0,0,10.1,6.167a12.69,12.69,0,0,0-8.7,3.7.5.5,0,0,0,.28.851l3.854.552-.476.533a.5.5,0,0,0,.02.687l6.427,6.427a.5.5,0,0,0,.687.019l.533-.476.552,3.854a.5.5,0,0,0,.354.386.459.459,0,0,0,.143.022.565.565,0,0,0,.387-.161A12.663,12.663,0,0,0,17.834,13.9,18.494,18.494,0,0,0,24,.491.5.5,0,0,0,23.508,0ZM18.9,8.635a2.5,2.5,0,1,1,0-3.536A2.492,2.492,0,0,1,18.9,8.635Z" fill="#6c3dff"/>
    <path id="Path_13272" data-name="Path 13272" d="M2.724,16.905c-1.07,1.07-2.539,5.9-2.7,6.451A.5.5,0,0,0,.5,24a.512.512,0,0,0,.144-.021c.547-.164,5.381-1.633,6.451-2.7a3.091,3.091,0,1,0-4.371-4.371Z" fill="#6c3dff"/>
  </g>
</svg>
