<svg xmlns="http://www.w3.org/2000/svg" width="18.76" height="21.345" viewBox="0 0 18.76 21.345">
  <g id="inspiration" transform="translate(-0.5 0.002)">
    <path id="Path_13274" data-name="Path 13274" d="M150.568,151.386a1.89,1.89,0,0,0,.394,1.712,2.971,2.971,0,0,1,.8,1.9h1.251V154.9a2.543,2.543,0,0,1,.743-1.739,1.877,1.877,0,1,0-3.184-1.77Zm0,0" transform="translate(-143.755 -143.746)" fill="#2327ae"/>
    <path id="Path_13275" data-name="Path 13275" d="M6.887.18A8.13,8.13,0,0,0,3,13.994v6.724a.625.625,0,0,0,.625.625h7.5a.625.625,0,0,0,.626-.625v-3.21h3.127a1.878,1.878,0,0,0,1.876-1.876V13.517l2.156-1.078a.625.625,0,0,0,.241-.906l-2.4-3.6A8.139,8.139,0,0,0,6.887.18ZM9.88,15.006h-2.5a.625.625,0,0,1,0-1.251h2.5a.625.625,0,0,1,0,1.251ZM9.255,4.375v.7a3.093,3.093,0,0,1,1.085.459l.5-.5a.625.625,0,0,1,.884.884l-.5.5A3.092,3.092,0,0,1,11.686,7.5h.695a.625.625,0,0,1,0,1.251H11.69a3.112,3.112,0,0,1-.779,1.513,1.347,1.347,0,0,0-.405.884v.73a.625.625,0,0,1-.625.625h-2.5a.625.625,0,0,1-.625-.625V11.3a1.751,1.751,0,0,0-.493-1.127,3.087,3.087,0,0,1-.687-1.416h-.7a.625.625,0,0,1,0-1.251h.7c.011-.054.007-.108.021-.163a2.958,2.958,0,0,1,.431-.926l-.5-.5a.625.625,0,1,1,.884-.884l.5.5a3.007,3.007,0,0,1,1.036-.464c.015,0,.031,0,.046,0V4.375a.625.625,0,0,1,1.251,0Zm0,0" transform="translate(0 0)" fill="#2327ae"/>
  </g>
</svg>
