<svg xmlns="http://www.w3.org/2000/svg" width="21.846" height="22.564" viewBox="0 0 21.846 22.564">
  <g id="Group_170" data-name="Group 170" transform="translate(0 0.004)">
    <g id="Group_169" data-name="Group 169" transform="translate(0.714 0.717)">
      <path id="Path_13269" data-name="Path 13269" d="M19.408,11.305V8.054a1.626,1.626,0,0,0-1.626-1.626H2.34A1.626,1.626,0,0,0,.714,8.054V19.433A1.626,1.626,0,0,0,2.34,21.058H17.782a1.626,1.626,0,0,0,1.626-1.626V15.369" transform="translate(-0.714 0.071)" fill="#87ff7e" stroke="#87ff7e" stroke-linecap="round" stroke-linejoin="round" stroke-width="1.429"/>
      <path id="Path_13270" data-name="Path 13270" d="M5.486,3.152,14.7.746a.8.8,0,0,1,.992.585l.455,1.821" transform="translate(-0.056 -0.717)" fill="none" stroke="#87ff7e" stroke-linecap="round" stroke-linejoin="round" stroke-width="1.429"/>
      <rect id="Rectangle_125" data-name="Rectangle 125" width="5.689" height="4.064" rx="0.714" transform="translate(15.443 11.376)" fill="#fff"/>
    </g>
  </g>
</svg>
