<svg xmlns="http://www.w3.org/2000/svg" width="22.855" height="22.856" viewBox="0 0 22.855 22.856">
  <g id="Group_156" data-name="Group 156" transform="translate(0 0.001)">
    <g id="Group_149" data-name="Group 149" transform="translate(0.714 0.713)">
      <path id="Path_13204" data-name="Path 13204" d="M4.286,11.428V7.093A6.477,6.477,0,0,1,10.879.714h0a6.477,6.477,0,0,1,6.593,6.379v4.335" transform="translate(-0.165 -0.713)" fill="none" stroke="#6c3dff" stroke-linecap="round" stroke-linejoin="round" stroke-width="1.429"/>
      <path id="Path_13205" data-name="Path 13205" d="M2.362,7.857H4.011a.824.824,0,0,1,.824.824v4.945a.824.824,0,0,1-.824.824H2.362A1.648,1.648,0,0,1,.714,12.8v-3.3A1.648,1.648,0,0,1,2.362,7.857Z" transform="translate(-0.714 0.385)" fill="#6c3dff" stroke="#6c3dff" stroke-linecap="round" stroke-linejoin="round" stroke-width="1.429"/>
      <path id="Path_13206" data-name="Path 13206" d="M1.648,0H3.3a.824.824,0,0,1,.824.824V5.769a.824.824,0,0,1-.824.824H1.648A1.648,1.648,0,0,1,0,4.945v-3.3A1.648,1.648,0,0,1,1.648,0Z" transform="translate(21.427 14.835) rotate(180)" fill="#6c3dff" stroke="#6c3dff" stroke-linecap="round" stroke-linejoin="round" stroke-width="1.429"/>
      <path id="Path_13207" data-name="Path 13207" d="M12.857,18.433a3.3,3.3,0,0,0,3.3-3.3h0V11.429" transform="translate(1.153 0.934)" fill="none" stroke="#6c3dff" stroke-linecap="round" stroke-linejoin="round" stroke-width="1.429"/>
      <path id="Path_13208" data-name="Path 13208" d="M13.736,17.775a2.06,2.06,0,0,1-2.06,2.06H9.2a2.06,2.06,0,1,1,0-4.121h2.472A2.06,2.06,0,0,1,13.736,17.775Z" transform="translate(0.274 1.593)" fill="#6c3dff" stroke="#6c3dff" stroke-linecap="round" stroke-linejoin="round" stroke-width="1.429"/>
    </g>
  </g>
</svg>
