<svg id="Group_168" data-name="Group 168" xmlns="http://www.w3.org/2000/svg" width="24.505" height="24.505" viewBox="0 0 24.505 24.505">
  <g id="Group_167" data-name="Group 167" transform="translate(0.714 0.714)">
    <path id="Path_13263" data-name="Path 13263" d="M2.489,8.571H4.265a.888.888,0,0,1,.888.888V13.9a.888.888,0,0,1-.888.888H2.489A1.775,1.775,0,0,1,.714,13.009V10.347A1.775,1.775,0,0,1,2.489,8.571Z" transform="translate(-0.714 1.192)" fill="#ff407a" stroke="#ff407a" stroke-linecap="round" stroke-linejoin="round" stroke-width="1.429"/>
    <path id="Path_13264" data-name="Path 13264" d="M1.775,0H3.55a.888.888,0,0,1,.888.888V5.325a.888.888,0,0,1-.888.888H1.775A1.775,1.775,0,0,1,0,4.438V1.775A1.775,1.775,0,0,1,1.775,0Z" transform="translate(23.077 15.976) rotate(180)" fill="#ff407a" stroke="#ff407a" stroke-linecap="round" stroke-linejoin="round" stroke-width="1.429"/>
    <path id="Path_13265" data-name="Path 13265" d="M13.571,18.453a3.55,3.55,0,0,0,3.55-3.55h0V13.571" transform="translate(2.405 2.405)" fill="none" stroke="#ff407a" stroke-linecap="round" stroke-linejoin="round" stroke-width="1.429"/>
    <path id="Path_13266" data-name="Path 13266" d="M12.739,15.714a2.219,2.219,0,0,1,0,4.438H10.076a2.219,2.219,0,1,1,0-4.438Z" transform="translate(1.019 2.925)" fill="#ff407a" stroke="#ff407a" stroke-linecap="round" stroke-linejoin="round" stroke-width="1.429"/>
    <path id="Path_13267" data-name="Path 13267" d="M3.571,10.477V8.7a7.988,7.988,0,1,1,15.976,0v1.775" transform="translate(-0.021 -0.714)" fill="none" stroke="#ff407a" stroke-linecap="round" stroke-linejoin="round" stroke-width="1.429"/>
    <line id="Line_67" data-name="Line 67" y2="2.663" transform="translate(8.876 6.213)" fill="none" stroke="#ff407a" stroke-linecap="round" stroke-linejoin="round" stroke-width="1.429"/>
    <line id="Line_68" data-name="Line 68" y2="2.663" transform="translate(14.201 6.213)" fill="none" stroke="#ff407a" stroke-linecap="round" stroke-linejoin="round" stroke-width="1.429"/>
    <path id="Path_13268" data-name="Path 13268" d="M7.857,10.714c0,2.361,5.325,2.361,5.325,0" transform="translate(1.019 1.712)" fill="none" stroke="#ff407a" stroke-linecap="round" stroke-linejoin="round" stroke-width="1.429"/>
  </g>
</svg>
