<svg xmlns="http://www.w3.org/2000/svg" width="18.743" height="18.743" viewBox="0 0 18.743 18.743">
  <g id="gear" transform="translate(-0.5 0)">
    <path id="Path_13250" data-name="Path 13250" d="M18.739,7.257l-2.252-.23a7,7,0,0,0-.28-.675L17.637,4.6a.561.561,0,0,0-.038-.751l-2.2-2.2a.561.561,0,0,0-.751-.038l-1.475,1.2a.6.6,0,0,1-.609.082l-.013-.005a.6.6,0,0,1-.371-.488L11.986.5a.561.561,0,0,0-.558-.5H8.316a.561.561,0,0,0-.558.5L7.564,2.4a.6.6,0,0,1-.372.488L7.18,2.89a.6.6,0,0,1-.608-.083L5.1,1.606a.561.561,0,0,0-.751.038l-2.2,2.2a.561.561,0,0,0-.038.751l1.2,1.475a.6.6,0,0,1,.083.607l-.006.015a.6.6,0,0,1-.488.371L1,7.257a.561.561,0,0,0-.5.558v3.112a.561.561,0,0,0,.5.558l1.892.193a.6.6,0,0,1,.488.371l.006.013a.6.6,0,0,1-.083.608l-1.2,1.475a.561.561,0,0,0,.038.751l2.2,2.2a.561.561,0,0,0,.751.038l1.475-1.2a.6.6,0,0,1,.608-.083l.014.006a.6.6,0,0,1,.371.488l.193,1.892a.561.561,0,0,0,.558.5h3.112a.561.561,0,0,0,.558-.5l.193-1.892a.6.6,0,0,1,.371-.488l.013-.005a.6.6,0,0,1,.608.083l1.475,1.2A.561.561,0,0,0,15.4,17.1l2.2-2.2a.561.561,0,0,0,.038-.751l-1.2-1.475a.6.6,0,0,1-.082-.609l.005-.013a.6.6,0,0,1,.488-.371l1.892-.193a.561.561,0,0,0,.5-.558V7.815a.561.561,0,0,0-.5-.558Zm-8.867,6.6a4.485,4.485,0,1,1,4.485-4.485A4.49,4.49,0,0,1,9.872,13.856Zm0,0" fill="#bf3dff"/>
    <path id="Path_13251" data-name="Path 13251" d="M168.022,164.16a3.362,3.362,0,1,0,3.362,3.362A3.366,3.366,0,0,0,168.022,164.16ZM170,166.91l-2.019,2.019a.561.561,0,0,1-.794,0l-1.138-1.138a.561.561,0,1,1,.794-.794l.741.741,1.622-1.622a.561.561,0,0,1,.794.794Zm0,0" transform="translate(-158.15 -158.151)" fill="#bf3dff"/>
  </g>
</svg>
