<svg xmlns="http://www.w3.org/2000/svg" width="14.675" height="19.567" viewBox="0 0 14.675 19.567">
  <g id="shopping-bag" transform="translate(-64.015 0)">
    <path id="Path_13252" data-name="Path 13252" d="M78.078,4.893H76.244V4.282a4.28,4.28,0,0,0-8.56,0v3.04a.623.623,0,0,1-.582.628.611.611,0,0,1-.641-.611V5.084a.191.191,0,0,0-.191-.191H64.626a.611.611,0,0,0-.611.611V17.733a1.834,1.834,0,0,0,1.834,1.834H76.855a1.834,1.834,0,0,0,1.834-1.834V5.5a.611.611,0,0,0-.611-.611ZM67.989,10.7a1.223,1.223,0,1,1,1.223,1.223A1.224,1.224,0,0,1,67.989,10.7Zm1.222,5.5a.612.612,0,0,1-.482-.987l4.28-5.5a.611.611,0,0,1,.965.751l-4.28,5.5A.61.61,0,0,1,69.212,16.2Zm4.28,0a1.223,1.223,0,1,1,1.223-1.223A1.224,1.224,0,0,1,73.492,16.2ZM74.38,7.95a.623.623,0,0,1-.582-.628V5.084a.191.191,0,0,0-.191-.191h-4.7V4.282a3.057,3.057,0,0,1,6.114,0V7.339A.611.611,0,0,1,74.38,7.95Z" transform="translate(0 0)" fill="#ff407a"/>
  </g>
</svg>
