<svg xmlns="http://www.w3.org/2000/svg" width="22.175" height="20.373" viewBox="0 0 22.175 20.373">
  <g id="XMLID_481_" transform="translate(0 -13.407)">
    <path id="XMLID_482_" d="M7.77,31.218q.6.527,1.237,1.089l.009.008,1.413,1.22a1.008,1.008,0,0,0,1.318,0l1.412-1.22.009-.008a59.584,59.584,0,0,0,6.41-6.213,9.579,9.579,0,0,0,2.6-6.137,6.48,6.48,0,0,0-6.55-6.55,7.034,7.034,0,0,0-4.538,1.7,7.036,7.036,0,0,0-4.538-1.7A6.48,6.48,0,0,0,0,19.957C0,24.4,3.091,27.11,7.77,31.218Zm-.715-9.641H9.743V18.889h2.689v2.689H15.12v2.688H12.432v2.688H9.743V24.266H7.055V21.577Z" transform="translate(0 0)" fill="#46f8e0"/>
  </g>
</svg>

