<svg xmlns="http://www.w3.org/2000/svg" width="22.175" height="17.922" viewBox="0 0 22.175 17.922">
  <g id="real-estate-house-proposal-for-a-bigger-size" transform="translate(0 -65.962)">
    <path id="Path_13253" data-name="Path 13253" d="M185.267,311.717l-5.352,4.417v5.581h10.7V316.15Zm-.081,7.87H183.2v-1.854h1.983Zm0-2.1H183.2v-1.854h1.983Zm2.241,2.1h-1.983v-1.854h1.983Zm0-2.1h-1.983v-1.854h1.983Z" transform="translate(-174.114 -237.831)" fill="#f6c72d"/>
    <path id="Path_13254" data-name="Path 13254" d="M11.155,65.962,5.917,70.215V68.262H3.978V71.81L0,75.081l1.233,1.5,2.7-2.22v7.266H5V77.64l6.152-5.078h0l2.583,2.156v-1.57h1.346v2.678L17.3,77.658v3.97h1.033V74.434l2.609,2.147,1.233-1.5Z" transform="translate(0 0)" fill="#f6c72d"/>
  </g>
</svg>
