<svg id="Group_159" data-name="Group 159" xmlns="http://www.w3.org/2000/svg" width="20" height="20" viewBox="0 0 20 20">
  <g id="Group_158" data-name="Group 158">
    <path id="Path_13255" data-name="Path 13255" d="M2.143,19.286A1.429,1.429,0,0,1,.714,17.857V2.143A1.429,1.429,0,0,1,2.143.714H17.857a1.429,1.429,0,0,1,1.429,1.429V17.857a1.429,1.429,0,0,1-1.429,1.429" fill="none" stroke="#e53dff" stroke-linecap="round" stroke-linejoin="round" stroke-width="1.429"/>
    <line id="Line_56" data-name="Line 56" x2="18.571" transform="translate(0.714 5)" fill="none" stroke="#e53dff" stroke-linecap="round" stroke-linejoin="round" stroke-width="1.429"/>
    <line id="Line_57" data-name="Line 57" y2="2.143" transform="translate(10 9.286)" fill="none" stroke="#e53dff" stroke-linecap="round" stroke-linejoin="round" stroke-width="1.429"/>
    <line id="Line_58" data-name="Line 58" x2="1.857" y2="1.071" transform="translate(5.671 11.786)" fill="none" stroke="#e53dff" stroke-linecap="round" stroke-linejoin="round" stroke-width="1.429"/>
    <line id="Line_59" data-name="Line 59" y1="1.071" x2="1.857" transform="translate(5.671 15.714)" fill="none" stroke="#e53dff" stroke-linecap="round" stroke-linejoin="round" stroke-width="1.429"/>
    <line id="Line_60" data-name="Line 60" y1="2.143" transform="translate(10 17.143)" fill="none" stroke="#e53dff" stroke-linecap="round" stroke-linejoin="round" stroke-width="1.429"/>
    <line id="Line_61" data-name="Line 61" x1="1.857" y1="1.071" transform="translate(12.471 15.714)" fill="none" stroke="#e53dff" stroke-linecap="round" stroke-linejoin="round" stroke-width="1.429"/>
    <line id="Line_62" data-name="Line 62" x1="1.857" y2="1.071" transform="translate(12.471 11.786)" fill="none" stroke="#e53dff" stroke-linecap="round" stroke-linejoin="round" stroke-width="1.429"/>
    <circle id="Ellipse_62" data-name="Ellipse 62" cx="2.857" cy="2.857" r="2.857" transform="translate(7.143 11.429)" fill="#e53dff" stroke="#e53dff" stroke-linecap="round" stroke-linejoin="round" stroke-width="1.429"/>
  </g>
</svg>
