<svg xmlns="http://www.w3.org/2000/svg" width="21.903" height="18.796" viewBox="0 0 21.903 18.796">
  <g id="work-from-home" transform="translate(-24 -56.212)">
    <path id="Path_13233" data-name="Path 13233" d="M48,416H67.638v1.888H48Z" transform="translate(-22.867 -342.88)" fill="#eb5656"/>
    <path id="Path_13234" data-name="Path 13234" d="M50.266,336.755a.755.755,0,0,0-.755-.755h-.755a.755.755,0,0,0-.755.755v.33h2.266Z" transform="translate(-22.867 -266.657)" fill="#eb5656"/>
    <path id="Path_13235" data-name="Path 13235" d="M24,376H45.9v1.133H24Z" transform="translate(0 -304.768)" fill="#eb5656"/>
    <path id="Path_13236" data-name="Path 13236" d="M408.755,306.644h1.133a.755.755,0,0,0,.755-.755V304H408v1.888A.755.755,0,0,0,408.755,306.644Z" transform="translate(-365.873 -236.167)" fill="#eb5656"/>
    <path id="Path_13237" data-name="Path 13237" d="M410.88,227.021h.755c0-.092.022-.123.136-.242a1.017,1.017,0,0,0,0-1.53c-.114-.119-.136-.15-.136-.242s.022-.123.136-.242a1.029,1.029,0,0,0,.347-.765h-.755c0,.092-.022.123-.136.242a1.017,1.017,0,0,0,0,1.53c.114.119.136.15.136.242s-.022.123-.136.242A1.03,1.03,0,0,0,410.88,227.021Z" transform="translate(-368.617 -159.944)" fill="#eb5656"/>
    <path id="Path_13238" data-name="Path 13238" d="M442.88,227.021h.755c0-.092.022-.123.136-.242a1.017,1.017,0,0,0,0-1.53c-.114-.119-.136-.15-.136-.242s.022-.123.136-.242a1.029,1.029,0,0,0,.347-.765h-.755c0,.092-.022.123-.136.242a1.017,1.017,0,0,0,0,1.53c.114.119.136.15.136.242s-.022.123-.136.242A1.03,1.03,0,0,0,442.88,227.021Z" transform="translate(-399.106 -159.944)" fill="#eb5656"/>
    <ellipse id="Ellipse_59" data-name="Ellipse 59" cx="2.44" cy="2.237" rx="2.44" ry="2.237" transform="translate(32.511 56.212)" fill="#eb5656"/>
    <path id="Path_13239" data-name="Path 13239" d="M139.329,207.553l.755-7.553H128l.755,7.553Zm-5.287-4.909a1.133,1.133,0,1,1-1.133,1.133A1.133,1.133,0,0,1,134.042,202.644Z" transform="translate(-99.091 -137.077)" fill="#eb5656"/>
    <path id="Path_13240" data-name="Path 13240" d="M174.8,152h-5.287A1.511,1.511,0,0,0,168,153.511h8.308A1.511,1.511,0,0,0,174.8,152Z" transform="translate(-137.202 -91.343)" fill="#eb5656"/>
  </g>
</svg>

