<svg xmlns="http://www.w3.org/2000/svg" width="29.548" height="29.926" viewBox="0 0 29.548 29.926">
  <g id="settings" transform="translate(-3.108)">
    <path id="Path_13241" data-name="Path 13241" d="M18.234,19.8c.051-.139.108-.275.169-.41a2.675,2.675,0,0,1,3.718-3.719c.135-.06.271-.117.411-.169a2.658,2.658,0,0,1,3.49-2.038,2.006,2.006,0,0,0-1.2-3.616H23.593a8.817,8.817,0,0,0-1.1-2.661l.869-.868a2.012,2.012,0,0,0-2.846-2.846l-.868.868a8.8,8.8,0,0,0-2.661-1.1V2.012a2.012,2.012,0,0,0-4.025,0V3.238a8.8,8.8,0,0,0-2.662,1.1l-.868-.868A2.012,2.012,0,0,0,6.582,6.32l.868.868a8.788,8.788,0,0,0-1.1,2.661H5.12a2.012,2.012,0,0,0,0,4.025H6.347a8.761,8.761,0,0,0,1.1,2.661l-.869.868a2.012,2.012,0,1,0,2.846,2.846l.868-.868a8.8,8.8,0,0,0,2.661,1.1V21.71a2.012,2.012,0,0,0,2.012,2.012,1.991,1.991,0,0,0,1.226-.428A2.66,2.66,0,0,1,18.234,19.8ZM14.97,15.888A4.027,4.027,0,1,1,19,11.861,4.028,4.028,0,0,1,14.97,15.888Z" fill="#fa9950"/>
    <path id="Path_13242" data-name="Path 13242" d="M256.833,252.45h-.747a5.744,5.744,0,0,0-.918-2.222l.527-.526a1.057,1.057,0,1,0-1.5-1.5l-.527.527a5.739,5.739,0,0,0-2.222-.919v-.746a1.056,1.056,0,1,0-2.112,0v.746a5.756,5.756,0,0,0-2.223.919l-.526-.526a1.057,1.057,0,1,0-1.495,1.494l.526.526a5.748,5.748,0,0,0-.918,2.222h-.747a1.057,1.057,0,1,0,0,2.114h.747a5.737,5.737,0,0,0,.919,2.222l-.527.527a1.057,1.057,0,1,0,1.495,1.494l.526-.526a5.763,5.763,0,0,0,2.223.918v.746a1.056,1.056,0,1,0,2.112,0V259.2a5.76,5.76,0,0,0,2.222-.919l.527.527a1.057,1.057,0,1,0,1.5-1.495l-.527-.527a5.746,5.746,0,0,0,.918-2.222h.747a1.057,1.057,0,1,0,0-2.114Zm-6.439,3.239a2.182,2.182,0,1,1,2.182-2.182A2.182,2.182,0,0,1,250.394,255.689Z" transform="translate(-225.234 -231.077)" fill="#fa9950"/>
  </g>
</svg>
