<svg xmlns="http://www.w3.org/2000/svg" width="22.436" height="21.035" viewBox="0 0 22.436 21.035">
  <g id="working-at-home" transform="translate(0 -15.983)">
    <g id="Group_157" data-name="Group 157" transform="translate(0 15.983)">
      <path id="Path_13243" data-name="Path 13243" d="M332.269,24.637l.566-3.394h.877l1.051,5.258h1.34l-1.209-6.045a.658.658,0,0,0-.644-.528h-1.2l.53-3.179a.657.657,0,1,0-1.3-.216l-1.315,7.888a.635.635,0,0,0,.541.754A.626.626,0,0,0,332.269,24.637Z" transform="translate(-316.459 -15.983)" fill="#87ff7e"/>
      <path id="Path_13244" data-name="Path 13244" d="M97.28,287.246h1.315a.657.657,0,0,0,.657-.657v-5.916a2.629,2.629,0,0,0-2.629-2.629h-5.3a2.6,2.6,0,0,1-1.315-.366v1.68a1.315,1.315,0,0,0,1.315,1.315h5.3v5.916A.657.657,0,0,0,97.28,287.246Z" transform="translate(-86.062 -266.211)" fill="#87ff7e"/>
      <path id="Path_13245" data-name="Path 13245" d="M5.259,120.5v1.315H4.6a.657.657,0,0,0,0,1.315H7.231a.657.657,0,0,0,0-1.315H6.574V120.5H7.932a1.315,1.315,0,0,0,0-2.629H2.63V115.9c0-6.652-1.327-9.383-1.384-9.5a.657.657,0,0,0-1.176.588c.013.025,1.245,2.564,1.245,8.908v2.629A1.972,1.972,0,0,0,3.287,120.5Z" transform="translate(0 -102.092)" fill="#87ff7e"/>
      <path id="Path_13246" data-name="Path 13246" d="M315.717,286.022h-8.3a3.924,3.924,0,0,1,.783,1.315h4.186v7.23a.657.657,0,1,0,1.315,0v-7.23h2.016a.657.657,0,0,0,0-1.315Z" transform="translate(-293.938 -274.189)" fill="#87ff7e"/>
    </g>
    <circle id="Ellipse_60" data-name="Ellipse 60" cx="1.972" cy="1.972" r="1.972" transform="translate(3.331 16.642)" fill="#87ff7e"/>
    <path id="Path_13247" data-name="Path 13247" d="M91.006,122.337v3.287a1.315,1.315,0,0,0,1.315,1.315h4.6a.657.657,0,0,0,.657-.657,1.972,1.972,0,0,0-1.972-1.972H93.635v-1.972a1.315,1.315,0,0,0-2.629,0Z" transform="translate(-87.018 -100.436)" fill="#87ff7e"/>
  </g>
</svg>
