<svg xmlns="http://www.w3.org/2000/svg" width="21.788" height="21.036" viewBox="0 0 21.788 21.036">
  <path id="megaphone" d="M17.769,20.32a22.355,22.355,0,0,0-9.312,2.436l-3.62,2.09a2,2,0,0,1-2.729-.732L.267,20.929A2,2,0,0,1,1,18.2l3-1.732a.363.363,0,0,1,.5.133l2.357,4.082a.363.363,0,0,0,.505.127.373.373,0,0,0,.116-.5L5.1,16.2a.363.363,0,0,1,.107-.479,22.349,22.349,0,0,0,6.18-6.453,1.52,1.52,0,0,1,2.6.051l5.038,8.727A1.52,1.52,0,0,1,17.769,20.32Zm.646-6.078a2.272,2.272,0,0,0-1.45-2.5.363.363,0,0,0-.437.524l1.214,2.1A.364.364,0,0,0,18.415,14.242ZM10.032,27.091,8.309,24.1a.363.363,0,0,0-.5-.133L5.6,25.246a.363.363,0,0,0-.133.5l1.726,2.99a1.18,1.18,0,0,0,1.025.591c.393,0,.543-.133,1.385-.619A1.182,1.182,0,0,0,10.032,27.091ZM21.067,11.481a.363.363,0,1,0-.363-.629l-.94.542a.364.364,0,0,0,.182.678C20.075,12.072,20.049,12.068,21.067,11.481ZM17.727,9.6l.229-.855a.363.363,0,1,0-.7-.188l-.229.855a.363.363,0,1,0,.7.188Zm4.048,5.759a.363.363,0,0,0-.257-.445l-.855-.229a.363.363,0,1,0-.188.7,5.887,5.887,0,0,0,.949.242.363.363,0,0,0,.351-.269Z" transform="translate(0 -8.287)" fill="#4873eb"/>
</svg>
