<svg xmlns="http://www.w3.org/2000/svg" width="26.754" height="26.756" viewBox="0 0 26.754 26.756">
  <g id="operation" transform="translate(-12.78 -12.743)">
    <circle id="Ellipse_61" data-name="Ellipse 61" cx="1.784" cy="1.784" r="1.784" transform="translate(24.405 24.349)" fill="#4bccf5"/>
    <path id="Path_13248" data-name="Path 13248" d="M175.863,204.059a5.466,5.466,0,0,0-7.763,2.065,5.466,5.466,0,0,0,9.669,0A5.48,5.48,0,0,0,175.863,204.059Zm-2.9,4.509a2.444,2.444,0,1,1,2.444-2.444A2.444,2.444,0,0,1,172.967,208.568Z" transform="translate(-146.778 -179.991)" fill="#4bccf5"/>
    <path id="Path_13249" data-name="Path 13249" d="M37.767,24.349a1.761,1.761,0,0,0-1.737,1.442H33.493a7.367,7.367,0,0,0-1.942-4.642l1.8-1.8a1.749,1.749,0,1,0-.46-.471L31.082,20.69a7.315,7.315,0,0,0-4.65-1.9v-2.54a1.767,1.767,0,1,0-.66-.021V18.8a7.317,7.317,0,0,0-4.59,1.937l-1.8-1.8a1.764,1.764,0,1,0-.477.456l1.811,1.8a7.36,7.36,0,0,0-1.9,4.648H16.292a1.766,1.766,0,1,0-1.746,2.033,1.786,1.786,0,0,0,1.72-1.373h2.556a7.337,7.337,0,0,0,1.928,4.587l-1.788,1.791a1.776,1.776,0,1,0,.46.477l1.8-1.8a7.316,7.316,0,0,0,4.608,1.9V36a1.766,1.766,0,1,0,.66,0V33.47a7.316,7.316,0,0,0,4.64-1.934l1.79,1.789a1.762,1.762,0,1,0,.47-.463l-1.794-1.8a7.351,7.351,0,0,0,1.9-4.611h2.542a1.765,1.765,0,1,0,1.732-2.1Zm-6.11,1.929a6.126,6.126,0,0,1-11,0,.33.33,0,0,1,0-.291,6.126,6.126,0,0,1,11,0,.33.33,0,0,1,0,.291Z" transform="translate(0 0)" fill="#4bccf5"/>
  </g>
</svg>
